<mxfile host="Electron" modified="2023-11-06T12:31:11.056Z" agent="Mozilla/5.0 (Windows NT 10.0; Win64; x64) AppleWebKit/537.36 (KHTML, like Gecko) draw.io/22.0.3 Chrome/114.0.5735.289 Electron/25.8.4 Safari/537.36" etag="JhcTTZ1TX-Kx15V3Wz_S" version="22.0.3" type="device">
  <diagram id="C5RBs43oDa-KdzZeNtuy" name="Page-1">
    <mxGraphModel dx="5987" dy="4267" grid="1" gridSize="10" guides="1" tooltips="1" connect="1" arrows="1" fold="1" page="1" pageScale="1" pageWidth="827" pageHeight="1169" math="0" shadow="0">
      <root>
        <mxCell id="WIyWlLk6GJQsqaUBKTNV-0" />
        <mxCell id="WIyWlLk6GJQsqaUBKTNV-1" parent="WIyWlLk6GJQsqaUBKTNV-0" />
        <UserObject label="TicketTracket Solution" tooltip="fsdfsdf" id="zYUKVJfDLjt4ml5X1DfT-0">
          <mxCell style="swimlane;childLayout=stackLayout;resizeParent=1;resizeParentMax=0;startSize=20;html=1;fontSize=16;" vertex="1" parent="WIyWlLk6GJQsqaUBKTNV-1">
            <mxGeometry x="-530" y="520" width="4000" height="2030" as="geometry" />
          </mxCell>
        </UserObject>
        <mxCell id="zYUKVJfDLjt4ml5X1DfT-1" value="Presentation" style="swimlane;startSize=20;html=1;fontSize=16;" vertex="1" parent="zYUKVJfDLjt4ml5X1DfT-0">
          <mxGeometry y="20" width="1000" height="2010" as="geometry" />
        </mxCell>
        <mxCell id="zYUKVJfDLjt4ml5X1DfT-6" value="TicketTrackerController" style="swimlane;fontStyle=1;align=center;verticalAlign=top;childLayout=stackLayout;horizontal=1;startSize=26;horizontalStack=0;resizeParent=1;resizeParentMax=0;resizeLast=0;collapsible=1;marginBottom=0;whiteSpace=wrap;html=1;fontSize=16;" vertex="1" parent="zYUKVJfDLjt4ml5X1DfT-1">
          <mxGeometry x="72.5" y="290" width="455" height="454" as="geometry" />
        </mxCell>
        <mxCell id="zYUKVJfDLjt4ml5X1DfT-7" value="private readonly ITicketService _ticketService;" style="text;strokeColor=none;fillColor=none;align=left;verticalAlign=top;spacingLeft=4;spacingRight=4;overflow=hidden;rotatable=0;points=[[0,0.5],[1,0.5]];portConstraint=eastwest;whiteSpace=wrap;html=1;fontSize=16;" vertex="1" parent="zYUKVJfDLjt4ml5X1DfT-6">
          <mxGeometry y="26" width="455" height="26" as="geometry" />
        </mxCell>
        <mxCell id="zYUKVJfDLjt4ml5X1DfT-8" value="" style="line;strokeWidth=1;fillColor=none;align=left;verticalAlign=middle;spacingTop=-1;spacingLeft=3;spacingRight=3;rotatable=0;labelPosition=right;points=[];portConstraint=eastwest;strokeColor=inherit;fontSize=16;" vertex="1" parent="zYUKVJfDLjt4ml5X1DfT-6">
          <mxGeometry y="52" width="455" height="30" as="geometry" />
        </mxCell>
        <mxCell id="zYUKVJfDLjt4ml5X1DfT-49" style="text;strokeColor=none;fillColor=none;align=left;verticalAlign=top;spacingLeft=4;spacingRight=4;overflow=hidden;rotatable=0;points=[[0,0.5],[1,0.5]];portConstraint=eastwest;whiteSpace=wrap;html=1;fontSize=16;" vertex="1" parent="zYUKVJfDLjt4ml5X1DfT-6">
          <mxGeometry y="82" width="455" height="38" as="geometry" />
        </mxCell>
        <mxCell id="zYUKVJfDLjt4ml5X1DfT-21" value="public TicketTrackerController(&lt;b&gt;ITicketService ticketService&lt;/b&gt;)&lt;br&gt;&amp;nbsp; &amp;nbsp; &amp;nbsp; &amp;nbsp; {&lt;br&gt;&amp;nbsp; &amp;nbsp; &amp;nbsp; &amp;nbsp; &amp;nbsp; &amp;nbsp; &lt;b&gt;_ticketService &lt;/b&gt;= ticketService;&lt;br&gt;&amp;nbsp; &amp;nbsp; &amp;nbsp; &amp;nbsp; }" style="text;strokeColor=none;fillColor=none;align=left;verticalAlign=top;spacingLeft=4;spacingRight=4;overflow=hidden;rotatable=0;points=[[0,0.5],[1,0.5]];portConstraint=eastwest;whiteSpace=wrap;html=1;fontSize=16;" vertex="1" parent="zYUKVJfDLjt4ml5X1DfT-6">
          <mxGeometry y="120" width="455" height="88" as="geometry" />
        </mxCell>
        <mxCell id="zYUKVJfDLjt4ml5X1DfT-20" style="text;strokeColor=none;fillColor=none;align=left;verticalAlign=top;spacingLeft=4;spacingRight=4;overflow=hidden;rotatable=0;points=[[0,0.5],[1,0.5]];portConstraint=eastwest;whiteSpace=wrap;html=1;fontSize=16;" vertex="1" parent="zYUKVJfDLjt4ml5X1DfT-6">
          <mxGeometry y="208" width="455" height="26" as="geometry" />
        </mxCell>
        <mxCell id="zYUKVJfDLjt4ml5X1DfT-48" style="text;strokeColor=none;fillColor=none;align=left;verticalAlign=top;spacingLeft=4;spacingRight=4;overflow=hidden;rotatable=0;points=[[0,0.5],[1,0.5]];portConstraint=eastwest;whiteSpace=wrap;html=1;fontSize=16;" vertex="1" parent="zYUKVJfDLjt4ml5X1DfT-6">
          <mxGeometry y="234" width="455" height="26" as="geometry" />
        </mxCell>
        <mxCell id="zYUKVJfDLjt4ml5X1DfT-12" value="[HttpPost]&lt;br&gt;&amp;nbsp; &amp;nbsp; &amp;nbsp; &amp;nbsp; public async Task Create(Ticket ticket)&lt;br&gt;&amp;nbsp; &amp;nbsp; &amp;nbsp; &amp;nbsp; {&lt;br&gt;&amp;nbsp; &amp;nbsp; &amp;nbsp; &amp;nbsp; &amp;nbsp; &amp;nbsp; await &lt;b&gt;_ticketService&lt;/b&gt;.Create(ticket);&amp;nbsp;&lt;br&gt;&lt;br&gt;&lt;br&gt;&amp;nbsp; &amp;nbsp; &amp;nbsp; &amp;nbsp; &amp;nbsp; &amp;nbsp; return RedirectToAction(nameof(Create));&amp;nbsp;&lt;br&gt;&amp;nbsp; &amp;nbsp; &amp;nbsp; &amp;nbsp; }" style="text;strokeColor=none;fillColor=none;align=left;verticalAlign=top;spacingLeft=4;spacingRight=4;overflow=hidden;rotatable=0;points=[[0,0.5],[1,0.5]];portConstraint=eastwest;whiteSpace=wrap;html=1;fontSize=16;" vertex="1" parent="zYUKVJfDLjt4ml5X1DfT-6">
          <mxGeometry y="260" width="455" height="194" as="geometry" />
        </mxCell>
        <mxCell id="zYUKVJfDLjt4ml5X1DfT-70" value="&lt;b&gt;Program.CS&lt;/b&gt;" style="swimlane;fontStyle=0;childLayout=stackLayout;horizontal=1;startSize=26;fillColor=none;horizontalStack=0;resizeParent=1;resizeParentMax=0;resizeLast=0;collapsible=1;marginBottom=0;whiteSpace=wrap;html=1;fontSize=16;" vertex="1" parent="zYUKVJfDLjt4ml5X1DfT-1">
          <mxGeometry x="100" y="1260" width="470" height="156" as="geometry" />
        </mxCell>
        <mxCell id="zYUKVJfDLjt4ml5X1DfT-74" style="text;strokeColor=none;fillColor=none;align=left;verticalAlign=top;spacingLeft=4;spacingRight=4;overflow=hidden;rotatable=0;points=[[0,0.5],[1,0.5]];portConstraint=eastwest;whiteSpace=wrap;html=1;fontSize=16;" vertex="1" parent="zYUKVJfDLjt4ml5X1DfT-70">
          <mxGeometry y="26" width="470" height="26" as="geometry" />
        </mxCell>
        <mxCell id="zYUKVJfDLjt4ml5X1DfT-75" value="builder.Services.&lt;b&gt;AddApplication&lt;/b&gt;();" style="text;strokeColor=none;fillColor=none;align=left;verticalAlign=top;spacingLeft=4;spacingRight=4;overflow=hidden;rotatable=0;points=[[0,0.5],[1,0.5]];portConstraint=eastwest;whiteSpace=wrap;html=1;fontSize=16;" vertex="1" parent="zYUKVJfDLjt4ml5X1DfT-70">
          <mxGeometry y="52" width="470" height="26" as="geometry" />
        </mxCell>
        <mxCell id="zYUKVJfDLjt4ml5X1DfT-76" style="text;strokeColor=none;fillColor=none;align=left;verticalAlign=top;spacingLeft=4;spacingRight=4;overflow=hidden;rotatable=0;points=[[0,0.5],[1,0.5]];portConstraint=eastwest;whiteSpace=wrap;html=1;fontSize=16;" vertex="1" parent="zYUKVJfDLjt4ml5X1DfT-70">
          <mxGeometry y="78" width="470" height="26" as="geometry" />
        </mxCell>
        <mxCell id="zYUKVJfDLjt4ml5X1DfT-77" value="builder.Services.&lt;b&gt;AddInfrastructure&lt;/b&gt;(builder.Configuration);" style="text;strokeColor=none;fillColor=none;align=left;verticalAlign=top;spacingLeft=4;spacingRight=4;overflow=hidden;rotatable=0;points=[[0,0.5],[1,0.5]];portConstraint=eastwest;whiteSpace=wrap;html=1;fontSize=16;" vertex="1" parent="zYUKVJfDLjt4ml5X1DfT-70">
          <mxGeometry y="104" width="470" height="26" as="geometry" />
        </mxCell>
        <mxCell id="zYUKVJfDLjt4ml5X1DfT-90" style="text;strokeColor=none;fillColor=none;align=left;verticalAlign=top;spacingLeft=4;spacingRight=4;overflow=hidden;rotatable=0;points=[[0,0.5],[1,0.5]];portConstraint=eastwest;whiteSpace=wrap;html=1;fontSize=16;" vertex="1" parent="zYUKVJfDLjt4ml5X1DfT-70">
          <mxGeometry y="130" width="470" height="26" as="geometry" />
        </mxCell>
        <mxCell id="zYUKVJfDLjt4ml5X1DfT-79" value="AddApplication called in Program.CS" style="text;html=1;align=center;verticalAlign=middle;resizable=0;points=[];autosize=1;strokeColor=none;fillColor=none;fontSize=18;fontStyle=1" vertex="1" parent="zYUKVJfDLjt4ml5X1DfT-1">
          <mxGeometry x="625" y="1285" width="340" height="40" as="geometry" />
        </mxCell>
        <mxCell id="zYUKVJfDLjt4ml5X1DfT-2" value="Application" style="swimlane;startSize=20;html=1;fontSize=16;" vertex="1" parent="zYUKVJfDLjt4ml5X1DfT-0">
          <mxGeometry x="1000" y="20" width="1000" height="2010" as="geometry" />
        </mxCell>
        <mxCell id="zYUKVJfDLjt4ml5X1DfT-51" style="edgeStyle=orthogonalEdgeStyle;rounded=0;orthogonalLoop=1;jettySize=auto;html=1;fontSize=12;startSize=8;endSize=8;" edge="1" parent="zYUKVJfDLjt4ml5X1DfT-2" source="zYUKVJfDLjt4ml5X1DfT-13" target="zYUKVJfDLjt4ml5X1DfT-22">
          <mxGeometry relative="1" as="geometry" />
        </mxCell>
        <mxCell id="zYUKVJfDLjt4ml5X1DfT-52" value="Implements Interface" style="edgeLabel;html=1;align=center;verticalAlign=middle;resizable=0;points=[];fontSize=18;fontStyle=1" vertex="1" connectable="0" parent="zYUKVJfDLjt4ml5X1DfT-51">
          <mxGeometry x="-0.2003" y="-1" relative="1" as="geometry">
            <mxPoint as="offset" />
          </mxGeometry>
        </mxCell>
        <mxCell id="zYUKVJfDLjt4ml5X1DfT-13" value="ITicketService" style="swimlane;fontStyle=1;align=center;verticalAlign=top;childLayout=stackLayout;horizontal=1;startSize=26;horizontalStack=0;resizeParent=1;resizeParentMax=0;resizeLast=0;collapsible=1;marginBottom=0;whiteSpace=wrap;html=1;fontSize=16;" vertex="1" parent="zYUKVJfDLjt4ml5X1DfT-2">
          <mxGeometry x="210" y="95" width="455" height="108" as="geometry" />
        </mxCell>
        <mxCell id="zYUKVJfDLjt4ml5X1DfT-15" value="" style="line;strokeWidth=1;fillColor=none;align=left;verticalAlign=middle;spacingTop=-1;spacingLeft=3;spacingRight=3;rotatable=0;labelPosition=right;points=[];portConstraint=eastwest;strokeColor=inherit;fontSize=16;" vertex="1" parent="zYUKVJfDLjt4ml5X1DfT-13">
          <mxGeometry y="26" width="455" height="30" as="geometry" />
        </mxCell>
        <mxCell id="zYUKVJfDLjt4ml5X1DfT-18" value="Task Create(Ticket ticket)" style="text;strokeColor=none;fillColor=none;align=left;verticalAlign=top;spacingLeft=4;spacingRight=4;overflow=hidden;rotatable=0;points=[[0,0.5],[1,0.5]];portConstraint=eastwest;whiteSpace=wrap;html=1;fontSize=16;" vertex="1" parent="zYUKVJfDLjt4ml5X1DfT-13">
          <mxGeometry y="56" width="455" height="26" as="geometry" />
        </mxCell>
        <mxCell id="zYUKVJfDLjt4ml5X1DfT-19" style="text;strokeColor=none;fillColor=none;align=left;verticalAlign=top;spacingLeft=4;spacingRight=4;overflow=hidden;rotatable=0;points=[[0,0.5],[1,0.5]];portConstraint=eastwest;whiteSpace=wrap;html=1;fontSize=16;" vertex="1" parent="zYUKVJfDLjt4ml5X1DfT-13">
          <mxGeometry y="82" width="455" height="26" as="geometry" />
        </mxCell>
        <mxCell id="zYUKVJfDLjt4ml5X1DfT-22" value="class TicketService : ITicketService" style="swimlane;fontStyle=1;align=center;verticalAlign=top;childLayout=stackLayout;horizontal=1;startSize=26;horizontalStack=0;resizeParent=1;resizeParentMax=0;resizeLast=0;collapsible=1;marginBottom=0;whiteSpace=wrap;html=1;fontSize=16;" vertex="1" parent="zYUKVJfDLjt4ml5X1DfT-2">
          <mxGeometry x="212.5" y="500" width="597.5" height="368" as="geometry" />
        </mxCell>
        <mxCell id="zYUKVJfDLjt4ml5X1DfT-23" value="ITicketRepository _ticketRpository" style="text;strokeColor=none;fillColor=none;align=left;verticalAlign=top;spacingLeft=4;spacingRight=4;overflow=hidden;rotatable=0;points=[[0,0.5],[1,0.5]];portConstraint=eastwest;whiteSpace=wrap;html=1;fontSize=16;" vertex="1" parent="zYUKVJfDLjt4ml5X1DfT-22">
          <mxGeometry y="26" width="597.5" height="26" as="geometry" />
        </mxCell>
        <mxCell id="zYUKVJfDLjt4ml5X1DfT-24" value="" style="line;strokeWidth=1;fillColor=none;align=left;verticalAlign=middle;spacingTop=-1;spacingLeft=3;spacingRight=3;rotatable=0;labelPosition=right;points=[];portConstraint=eastwest;strokeColor=inherit;fontSize=16;" vertex="1" parent="zYUKVJfDLjt4ml5X1DfT-22">
          <mxGeometry y="52" width="597.5" height="8" as="geometry" />
        </mxCell>
        <mxCell id="zYUKVJfDLjt4ml5X1DfT-26" style="text;strokeColor=none;fillColor=none;align=left;verticalAlign=top;spacingLeft=4;spacingRight=4;overflow=hidden;rotatable=0;points=[[0,0.5],[1,0.5]];portConstraint=eastwest;whiteSpace=wrap;html=1;fontSize=16;" vertex="1" parent="zYUKVJfDLjt4ml5X1DfT-22">
          <mxGeometry y="60" width="597.5" height="26" as="geometry" />
        </mxCell>
        <mxCell id="zYUKVJfDLjt4ml5X1DfT-27" value="TicketService(ITicketRepository ticketRepository)&#xa;        {&#xa;            _ticketRpository = ticketRepository;&#xa;        }" style="text;strokeColor=none;fillColor=none;align=left;verticalAlign=top;spacingLeft=4;spacingRight=4;overflow=hidden;rotatable=0;points=[[0,0.5],[1,0.5]];portConstraint=eastwest;whiteSpace=wrap;html=1;fontSize=16;" vertex="1" parent="zYUKVJfDLjt4ml5X1DfT-22">
          <mxGeometry y="86" width="597.5" height="94" as="geometry" />
        </mxCell>
        <mxCell id="zYUKVJfDLjt4ml5X1DfT-28" style="text;strokeColor=none;fillColor=none;align=left;verticalAlign=top;spacingLeft=4;spacingRight=4;overflow=hidden;rotatable=0;points=[[0,0.5],[1,0.5]];portConstraint=eastwest;whiteSpace=wrap;html=1;fontSize=16;" vertex="1" parent="zYUKVJfDLjt4ml5X1DfT-22">
          <mxGeometry y="180" width="597.5" height="26" as="geometry" />
        </mxCell>
        <mxCell id="zYUKVJfDLjt4ml5X1DfT-29" value="&lt;div&gt;Task Create(Ticket ticket)&lt;/div&gt;&lt;div&gt;&amp;nbsp; &amp;nbsp; &amp;nbsp; &amp;nbsp; {&lt;/div&gt;&lt;div&gt;&amp;nbsp; &amp;nbsp; &amp;nbsp; &amp;nbsp; &amp;nbsp; &amp;nbsp; await _ticketRpository.Create(ticket);&lt;/div&gt;&lt;div&gt;&amp;nbsp; &amp;nbsp; &amp;nbsp; &amp;nbsp; }&lt;/div&gt;" style="text;strokeColor=none;fillColor=none;align=left;verticalAlign=top;spacingLeft=4;spacingRight=4;overflow=hidden;rotatable=0;points=[[0,0.5],[1,0.5]];portConstraint=eastwest;whiteSpace=wrap;html=1;fontSize=16;" vertex="1" parent="zYUKVJfDLjt4ml5X1DfT-22">
          <mxGeometry y="206" width="597.5" height="84" as="geometry" />
        </mxCell>
        <mxCell id="zYUKVJfDLjt4ml5X1DfT-30" style="text;strokeColor=none;fillColor=none;align=left;verticalAlign=top;spacingLeft=4;spacingRight=4;overflow=hidden;rotatable=0;points=[[0,0.5],[1,0.5]];portConstraint=eastwest;whiteSpace=wrap;html=1;fontSize=16;" vertex="1" parent="zYUKVJfDLjt4ml5X1DfT-22">
          <mxGeometry y="290" width="597.5" height="26" as="geometry" />
        </mxCell>
        <mxCell id="zYUKVJfDLjt4ml5X1DfT-31" style="text;strokeColor=none;fillColor=none;align=left;verticalAlign=top;spacingLeft=4;spacingRight=4;overflow=hidden;rotatable=0;points=[[0,0.5],[1,0.5]];portConstraint=eastwest;whiteSpace=wrap;html=1;fontSize=16;" vertex="1" parent="zYUKVJfDLjt4ml5X1DfT-22">
          <mxGeometry y="316" width="597.5" height="26" as="geometry" />
        </mxCell>
        <mxCell id="zYUKVJfDLjt4ml5X1DfT-32" style="text;strokeColor=none;fillColor=none;align=left;verticalAlign=top;spacingLeft=4;spacingRight=4;overflow=hidden;rotatable=0;points=[[0,0.5],[1,0.5]];portConstraint=eastwest;whiteSpace=wrap;html=1;fontSize=16;" vertex="1" parent="zYUKVJfDLjt4ml5X1DfT-22">
          <mxGeometry y="342" width="597.5" height="26" as="geometry" />
        </mxCell>
        <mxCell id="zYUKVJfDLjt4ml5X1DfT-58" value="static class ServiceCollectionExtension" style="swimlane;fontStyle=1;align=center;verticalAlign=top;childLayout=stackLayout;horizontal=1;startSize=26;horizontalStack=0;resizeParent=1;resizeParentMax=0;resizeLast=0;collapsible=1;marginBottom=0;whiteSpace=wrap;html=1;fontSize=16;" vertex="1" parent="zYUKVJfDLjt4ml5X1DfT-2">
          <mxGeometry x="190" y="1260" width="597.5" height="242" as="geometry" />
        </mxCell>
        <mxCell id="zYUKVJfDLjt4ml5X1DfT-60" value="" style="line;strokeWidth=1;fillColor=none;align=left;verticalAlign=middle;spacingTop=-1;spacingLeft=3;spacingRight=3;rotatable=0;labelPosition=right;points=[];portConstraint=eastwest;strokeColor=inherit;fontSize=16;" vertex="1" parent="zYUKVJfDLjt4ml5X1DfT-58">
          <mxGeometry y="26" width="597.5" height="30" as="geometry" />
        </mxCell>
        <mxCell id="zYUKVJfDLjt4ml5X1DfT-61" value="&lt;div&gt;&amp;nbsp; &amp;nbsp; &amp;nbsp; &amp;nbsp; public static void &lt;b&gt;AddApplication&lt;/b&gt;(this IServiceCollection services)&lt;/div&gt;&lt;div&gt;&amp;nbsp; &amp;nbsp; &amp;nbsp; &amp;nbsp; {&lt;/div&gt;&lt;div&gt;&amp;nbsp; &amp;nbsp; &amp;nbsp; &amp;nbsp; &amp;nbsp; &amp;nbsp; services.AddScoped&amp;lt;&lt;b&gt;ITicketService, TicketService&lt;/b&gt;&amp;gt;();&lt;/div&gt;&lt;div&gt;&lt;br&gt;&lt;/div&gt;&lt;div&gt;&amp;nbsp; &amp;nbsp; &amp;nbsp; &amp;nbsp; }&lt;/div&gt;" style="text;strokeColor=none;fillColor=none;align=left;verticalAlign=top;spacingLeft=4;spacingRight=4;overflow=hidden;rotatable=0;points=[[0,0.5],[1,0.5]];portConstraint=eastwest;whiteSpace=wrap;html=1;fontSize=16;" vertex="1" parent="zYUKVJfDLjt4ml5X1DfT-58">
          <mxGeometry y="56" width="597.5" height="134" as="geometry" />
        </mxCell>
        <mxCell id="zYUKVJfDLjt4ml5X1DfT-63" style="text;strokeColor=none;fillColor=none;align=left;verticalAlign=top;spacingLeft=4;spacingRight=4;overflow=hidden;rotatable=0;points=[[0,0.5],[1,0.5]];portConstraint=eastwest;whiteSpace=wrap;html=1;fontSize=16;" vertex="1" parent="zYUKVJfDLjt4ml5X1DfT-58">
          <mxGeometry y="190" width="597.5" height="26" as="geometry" />
        </mxCell>
        <mxCell id="zYUKVJfDLjt4ml5X1DfT-64" style="text;strokeColor=none;fillColor=none;align=left;verticalAlign=top;spacingLeft=4;spacingRight=4;overflow=hidden;rotatable=0;points=[[0,0.5],[1,0.5]];portConstraint=eastwest;whiteSpace=wrap;html=1;fontSize=16;" vertex="1" parent="zYUKVJfDLjt4ml5X1DfT-58">
          <mxGeometry y="216" width="597.5" height="26" as="geometry" />
        </mxCell>
        <mxCell id="zYUKVJfDLjt4ml5X1DfT-66" style="edgeStyle=orthogonalEdgeStyle;rounded=0;orthogonalLoop=1;jettySize=auto;html=1;entryX=1;entryY=0.5;entryDx=0;entryDy=0;fontSize=12;startSize=8;endSize=8;" edge="1" parent="zYUKVJfDLjt4ml5X1DfT-2" source="zYUKVJfDLjt4ml5X1DfT-22" target="zYUKVJfDLjt4ml5X1DfT-61">
          <mxGeometry relative="1" as="geometry" />
        </mxCell>
        <mxCell id="zYUKVJfDLjt4ml5X1DfT-68" value="Registers in DI" style="edgeLabel;html=1;align=center;verticalAlign=middle;resizable=0;points=[];fontSize=18;fontStyle=1" vertex="1" connectable="0" parent="zYUKVJfDLjt4ml5X1DfT-66">
          <mxGeometry x="-0.1555" y="4" relative="1" as="geometry">
            <mxPoint as="offset" />
          </mxGeometry>
        </mxCell>
        <mxCell id="zYUKVJfDLjt4ml5X1DfT-67" style="edgeStyle=orthogonalEdgeStyle;rounded=0;orthogonalLoop=1;jettySize=auto;html=1;entryX=0;entryY=0.341;entryDx=0;entryDy=0;entryPerimeter=0;fontSize=12;startSize=8;endSize=8;" edge="1" parent="zYUKVJfDLjt4ml5X1DfT-2" source="zYUKVJfDLjt4ml5X1DfT-13" target="zYUKVJfDLjt4ml5X1DfT-61">
          <mxGeometry relative="1" as="geometry">
            <Array as="points">
              <mxPoint x="80" y="149" />
              <mxPoint x="80" y="1362" />
            </Array>
          </mxGeometry>
        </mxCell>
        <mxCell id="zYUKVJfDLjt4ml5X1DfT-69" value="Registers in DI" style="edgeLabel;html=1;align=center;verticalAlign=middle;resizable=0;points=[];fontSize=18;fontStyle=1" vertex="1" connectable="0" parent="zYUKVJfDLjt4ml5X1DfT-67">
          <mxGeometry x="0.0255" y="-2" relative="1" as="geometry">
            <mxPoint x="2" y="326" as="offset" />
          </mxGeometry>
        </mxCell>
        <mxCell id="zYUKVJfDLjt4ml5X1DfT-3" value="Domain" style="swimlane;startSize=20;html=1;fontSize=16;" vertex="1" parent="zYUKVJfDLjt4ml5X1DfT-0">
          <mxGeometry x="2000" y="20" width="1000" height="2010" as="geometry" />
        </mxCell>
        <mxCell id="zYUKVJfDLjt4ml5X1DfT-33" value="interface ITicketRepository" style="swimlane;fontStyle=1;align=center;verticalAlign=top;childLayout=stackLayout;horizontal=1;startSize=26;horizontalStack=0;resizeParent=1;resizeParentMax=0;resizeLast=0;collapsible=1;marginBottom=0;whiteSpace=wrap;html=1;fontSize=16;" vertex="1" parent="zYUKVJfDLjt4ml5X1DfT-3">
          <mxGeometry x="230" y="95" width="455" height="108" as="geometry" />
        </mxCell>
        <mxCell id="zYUKVJfDLjt4ml5X1DfT-34" value="" style="line;strokeWidth=1;fillColor=none;align=left;verticalAlign=middle;spacingTop=-1;spacingLeft=3;spacingRight=3;rotatable=0;labelPosition=right;points=[];portConstraint=eastwest;strokeColor=inherit;fontSize=16;" vertex="1" parent="zYUKVJfDLjt4ml5X1DfT-33">
          <mxGeometry y="26" width="455" height="30" as="geometry" />
        </mxCell>
        <mxCell id="zYUKVJfDLjt4ml5X1DfT-35" value="Task Create(Ticket ticket);" style="text;strokeColor=none;fillColor=none;align=left;verticalAlign=top;spacingLeft=4;spacingRight=4;overflow=hidden;rotatable=0;points=[[0,0.5],[1,0.5]];portConstraint=eastwest;whiteSpace=wrap;html=1;fontSize=16;" vertex="1" parent="zYUKVJfDLjt4ml5X1DfT-33">
          <mxGeometry y="56" width="455" height="26" as="geometry" />
        </mxCell>
        <mxCell id="zYUKVJfDLjt4ml5X1DfT-36" style="text;strokeColor=none;fillColor=none;align=left;verticalAlign=top;spacingLeft=4;spacingRight=4;overflow=hidden;rotatable=0;points=[[0,0.5],[1,0.5]];portConstraint=eastwest;whiteSpace=wrap;html=1;fontSize=16;" vertex="1" parent="zYUKVJfDLjt4ml5X1DfT-33">
          <mxGeometry y="82" width="455" height="26" as="geometry" />
        </mxCell>
        <mxCell id="zYUKVJfDLjt4ml5X1DfT-4" value="Infrastructure" style="swimlane;startSize=20;html=1;fontSize=16;" vertex="1" parent="zYUKVJfDLjt4ml5X1DfT-0">
          <mxGeometry x="3000" y="20" width="1000" height="2010" as="geometry" />
        </mxCell>
        <mxCell id="zYUKVJfDLjt4ml5X1DfT-86" style="edgeStyle=orthogonalEdgeStyle;rounded=0;orthogonalLoop=1;jettySize=auto;html=1;entryX=1.001;entryY=0.83;entryDx=0;entryDy=0;fontSize=12;startSize=8;endSize=8;exitX=0.556;exitY=-0.005;exitDx=0;exitDy=0;exitPerimeter=0;entryPerimeter=0;" edge="1" parent="zYUKVJfDLjt4ml5X1DfT-4" source="zYUKVJfDLjt4ml5X1DfT-37" target="zYUKVJfDLjt4ml5X1DfT-82">
          <mxGeometry relative="1" as="geometry">
            <Array as="points">
              <mxPoint x="525" y="420" />
              <mxPoint x="788" y="420" />
              <mxPoint x="788" y="1540" />
            </Array>
          </mxGeometry>
        </mxCell>
        <mxCell id="zYUKVJfDLjt4ml5X1DfT-87" value="Registers in DI" style="edgeLabel;html=1;align=center;verticalAlign=middle;resizable=0;points=[];fontSize=18;fontStyle=1" vertex="1" connectable="0" parent="zYUKVJfDLjt4ml5X1DfT-86">
          <mxGeometry x="0.3281" y="2" relative="1" as="geometry">
            <mxPoint as="offset" />
          </mxGeometry>
        </mxCell>
        <mxCell id="zYUKVJfDLjt4ml5X1DfT-37" value="class TicketRepository : ITicketRepository" style="swimlane;fontStyle=1;align=center;verticalAlign=top;childLayout=stackLayout;horizontal=1;startSize=26;horizontalStack=0;resizeParent=1;resizeParentMax=0;resizeLast=0;collapsible=1;marginBottom=0;whiteSpace=wrap;html=1;fontSize=16;" vertex="1" parent="zYUKVJfDLjt4ml5X1DfT-4">
          <mxGeometry x="275" y="500" width="450" height="388" as="geometry" />
        </mxCell>
        <mxCell id="zYUKVJfDLjt4ml5X1DfT-38" value="TicketTrackerDbContext _dbContext;" style="text;strokeColor=none;fillColor=none;align=left;verticalAlign=top;spacingLeft=4;spacingRight=4;overflow=hidden;rotatable=0;points=[[0,0.5],[1,0.5]];portConstraint=eastwest;whiteSpace=wrap;html=1;fontSize=16;" vertex="1" parent="zYUKVJfDLjt4ml5X1DfT-37">
          <mxGeometry y="26" width="450" height="26" as="geometry" />
        </mxCell>
        <mxCell id="zYUKVJfDLjt4ml5X1DfT-39" value="" style="line;strokeWidth=1;fillColor=none;align=left;verticalAlign=middle;spacingTop=-1;spacingLeft=3;spacingRight=3;rotatable=0;labelPosition=right;points=[];portConstraint=eastwest;strokeColor=inherit;fontSize=16;" vertex="1" parent="zYUKVJfDLjt4ml5X1DfT-37">
          <mxGeometry y="52" width="450" height="8" as="geometry" />
        </mxCell>
        <mxCell id="zYUKVJfDLjt4ml5X1DfT-40" style="text;strokeColor=none;fillColor=none;align=left;verticalAlign=top;spacingLeft=4;spacingRight=4;overflow=hidden;rotatable=0;points=[[0,0.5],[1,0.5]];portConstraint=eastwest;whiteSpace=wrap;html=1;fontSize=16;" vertex="1" parent="zYUKVJfDLjt4ml5X1DfT-37">
          <mxGeometry y="60" width="450" height="26" as="geometry" />
        </mxCell>
        <mxCell id="zYUKVJfDLjt4ml5X1DfT-41" value="&lt;div&gt;public TicketRepository(TicketTrackerDbContext dbContext)&amp;nbsp;&lt;/div&gt;&lt;div&gt;&amp;nbsp; &amp;nbsp; &amp;nbsp; &amp;nbsp; {&lt;/div&gt;&lt;div&gt;&amp;nbsp; &amp;nbsp; &amp;nbsp; &amp;nbsp; &amp;nbsp; &amp;nbsp; _dbContext = dbContext;&lt;/div&gt;&lt;div&gt;&amp;nbsp; &amp;nbsp; &amp;nbsp; &amp;nbsp; }&lt;/div&gt;" style="text;strokeColor=none;fillColor=none;align=left;verticalAlign=top;spacingLeft=4;spacingRight=4;overflow=hidden;rotatable=0;points=[[0,0.5],[1,0.5]];portConstraint=eastwest;whiteSpace=wrap;html=1;fontSize=16;" vertex="1" parent="zYUKVJfDLjt4ml5X1DfT-37">
          <mxGeometry y="86" width="450" height="94" as="geometry" />
        </mxCell>
        <mxCell id="zYUKVJfDLjt4ml5X1DfT-42" style="text;strokeColor=none;fillColor=none;align=left;verticalAlign=top;spacingLeft=4;spacingRight=4;overflow=hidden;rotatable=0;points=[[0,0.5],[1,0.5]];portConstraint=eastwest;whiteSpace=wrap;html=1;fontSize=16;" vertex="1" parent="zYUKVJfDLjt4ml5X1DfT-37">
          <mxGeometry y="180" width="450" height="26" as="geometry" />
        </mxCell>
        <mxCell id="zYUKVJfDLjt4ml5X1DfT-43" value="&lt;div&gt;public async Task Create(Ticket ticket)&lt;/div&gt;&lt;div&gt;&amp;nbsp; &amp;nbsp; &amp;nbsp; &amp;nbsp; {&lt;/div&gt;&lt;div&gt;&amp;nbsp; &amp;nbsp; &amp;nbsp; &amp;nbsp; &amp;nbsp; &amp;nbsp; _dbContext.Add(ticket);&lt;/div&gt;&lt;div&gt;&amp;nbsp; &amp;nbsp; &amp;nbsp; &amp;nbsp; &amp;nbsp; &amp;nbsp; await _dbContext.SaveChangesAsync();&amp;nbsp;&amp;nbsp;&lt;/div&gt;&lt;div&gt;&amp;nbsp; &amp;nbsp; &amp;nbsp; &amp;nbsp; }&lt;/div&gt;" style="text;strokeColor=none;fillColor=none;align=left;verticalAlign=top;spacingLeft=4;spacingRight=4;overflow=hidden;rotatable=0;points=[[0,0.5],[1,0.5]];portConstraint=eastwest;whiteSpace=wrap;html=1;fontSize=16;" vertex="1" parent="zYUKVJfDLjt4ml5X1DfT-37">
          <mxGeometry y="206" width="450" height="104" as="geometry" />
        </mxCell>
        <mxCell id="zYUKVJfDLjt4ml5X1DfT-44" style="text;strokeColor=none;fillColor=none;align=left;verticalAlign=top;spacingLeft=4;spacingRight=4;overflow=hidden;rotatable=0;points=[[0,0.5],[1,0.5]];portConstraint=eastwest;whiteSpace=wrap;html=1;fontSize=16;" vertex="1" parent="zYUKVJfDLjt4ml5X1DfT-37">
          <mxGeometry y="310" width="450" height="26" as="geometry" />
        </mxCell>
        <mxCell id="zYUKVJfDLjt4ml5X1DfT-45" style="text;strokeColor=none;fillColor=none;align=left;verticalAlign=top;spacingLeft=4;spacingRight=4;overflow=hidden;rotatable=0;points=[[0,0.5],[1,0.5]];portConstraint=eastwest;whiteSpace=wrap;html=1;fontSize=16;" vertex="1" parent="zYUKVJfDLjt4ml5X1DfT-37">
          <mxGeometry y="336" width="450" height="26" as="geometry" />
        </mxCell>
        <mxCell id="zYUKVJfDLjt4ml5X1DfT-46" style="text;strokeColor=none;fillColor=none;align=left;verticalAlign=top;spacingLeft=4;spacingRight=4;overflow=hidden;rotatable=0;points=[[0,0.5],[1,0.5]];portConstraint=eastwest;whiteSpace=wrap;html=1;fontSize=16;" vertex="1" parent="zYUKVJfDLjt4ml5X1DfT-37">
          <mxGeometry y="362" width="450" height="26" as="geometry" />
        </mxCell>
        <mxCell id="zYUKVJfDLjt4ml5X1DfT-80" value="static class ServiceCollectionExtension" style="swimlane;fontStyle=1;align=center;verticalAlign=top;childLayout=stackLayout;horizontal=1;startSize=26;horizontalStack=0;resizeParent=1;resizeParentMax=0;resizeLast=0;collapsible=1;marginBottom=0;whiteSpace=wrap;html=1;fontSize=16;" vertex="1" parent="zYUKVJfDLjt4ml5X1DfT-4">
          <mxGeometry x="170" y="1256" width="597.5" height="376" as="geometry" />
        </mxCell>
        <mxCell id="zYUKVJfDLjt4ml5X1DfT-81" value="" style="line;strokeWidth=1;fillColor=none;align=left;verticalAlign=middle;spacingTop=-1;spacingLeft=3;spacingRight=3;rotatable=0;labelPosition=right;points=[];portConstraint=eastwest;strokeColor=inherit;fontSize=16;" vertex="1" parent="zYUKVJfDLjt4ml5X1DfT-80">
          <mxGeometry y="26" width="597.5" height="30" as="geometry" />
        </mxCell>
        <mxCell id="zYUKVJfDLjt4ml5X1DfT-85" style="text;strokeColor=none;fillColor=none;align=left;verticalAlign=top;spacingLeft=4;spacingRight=4;overflow=hidden;rotatable=0;points=[[0,0.5],[1,0.5]];portConstraint=eastwest;whiteSpace=wrap;html=1;fontSize=16;" vertex="1" parent="zYUKVJfDLjt4ml5X1DfT-80">
          <mxGeometry y="56" width="597.5" height="34" as="geometry" />
        </mxCell>
        <mxCell id="zYUKVJfDLjt4ml5X1DfT-82" value="&lt;div&gt;public static void &lt;b&gt;AddInfrastructure&lt;/b&gt;(this IServiceCollection services, IConfiguration configuration)&lt;/div&gt;&lt;div&gt;&amp;nbsp; &amp;nbsp; &amp;nbsp; &amp;nbsp; {&lt;/div&gt;&lt;div&gt;&amp;nbsp; &amp;nbsp; &amp;nbsp; &amp;nbsp; &amp;nbsp; &amp;nbsp; services.AddDbContext&amp;lt;TicketTrackerDbContext&amp;gt;(options =&amp;gt; options.UseSqlServer(&lt;/div&gt;&lt;div&gt;&amp;nbsp; &amp;nbsp; &amp;nbsp; &amp;nbsp; &amp;nbsp; &amp;nbsp; &amp;nbsp; &amp;nbsp; configuration.GetConnectionString(&quot;TicketTrackerDev&quot;)));&lt;/div&gt;&lt;div&gt;&lt;br&gt;&lt;/div&gt;&lt;div&gt;&amp;nbsp; &amp;nbsp; &amp;nbsp; &amp;nbsp; &amp;nbsp; &amp;nbsp; services.AddScoped&amp;lt;TicketTrackerSeeder&amp;gt;();&amp;nbsp;&lt;/div&gt;&lt;div&gt;&lt;br&gt;&lt;/div&gt;&lt;div&gt;&amp;nbsp; &amp;nbsp; &amp;nbsp; &amp;nbsp; &amp;nbsp; &amp;nbsp; services.AddScoped&amp;lt;&lt;b&gt;ITicketRepository, TicketRepository&lt;/b&gt;&amp;gt;();&lt;/div&gt;&lt;div&gt;&amp;nbsp; &amp;nbsp; &amp;nbsp; &amp;nbsp; }&lt;/div&gt;" style="text;strokeColor=none;fillColor=none;align=left;verticalAlign=top;spacingLeft=4;spacingRight=4;overflow=hidden;rotatable=0;points=[[0,0.5],[1,0.5]];portConstraint=eastwest;whiteSpace=wrap;html=1;fontSize=16;" vertex="1" parent="zYUKVJfDLjt4ml5X1DfT-80">
          <mxGeometry y="90" width="597.5" height="234" as="geometry" />
        </mxCell>
        <mxCell id="zYUKVJfDLjt4ml5X1DfT-83" style="text;strokeColor=none;fillColor=none;align=left;verticalAlign=top;spacingLeft=4;spacingRight=4;overflow=hidden;rotatable=0;points=[[0,0.5],[1,0.5]];portConstraint=eastwest;whiteSpace=wrap;html=1;fontSize=16;" vertex="1" parent="zYUKVJfDLjt4ml5X1DfT-80">
          <mxGeometry y="324" width="597.5" height="26" as="geometry" />
        </mxCell>
        <mxCell id="zYUKVJfDLjt4ml5X1DfT-84" style="text;strokeColor=none;fillColor=none;align=left;verticalAlign=top;spacingLeft=4;spacingRight=4;overflow=hidden;rotatable=0;points=[[0,0.5],[1,0.5]];portConstraint=eastwest;whiteSpace=wrap;html=1;fontSize=16;" vertex="1" parent="zYUKVJfDLjt4ml5X1DfT-80">
          <mxGeometry y="350" width="597.5" height="26" as="geometry" />
        </mxCell>
        <mxCell id="zYUKVJfDLjt4ml5X1DfT-50" style="edgeStyle=orthogonalEdgeStyle;rounded=0;orthogonalLoop=1;jettySize=auto;html=1;entryX=1;entryY=0.5;entryDx=0;entryDy=0;fontSize=12;startSize=8;endSize=8;exitX=-0.003;exitY=0.221;exitDx=0;exitDy=0;exitPerimeter=0;" edge="1" parent="zYUKVJfDLjt4ml5X1DfT-0" source="zYUKVJfDLjt4ml5X1DfT-18" target="zYUKVJfDLjt4ml5X1DfT-21">
          <mxGeometry relative="1" as="geometry">
            <Array as="points">
              <mxPoint x="770" y="177" />
              <mxPoint x="770" y="474" />
            </Array>
          </mxGeometry>
        </mxCell>
        <mxCell id="zYUKVJfDLjt4ml5X1DfT-53" value="Using Intrface&amp;nbsp;" style="edgeLabel;html=1;align=center;verticalAlign=middle;resizable=0;points=[];fontSize=18;fontStyle=1" vertex="1" connectable="0" parent="zYUKVJfDLjt4ml5X1DfT-50">
          <mxGeometry x="-0.1497" y="-1" relative="1" as="geometry">
            <mxPoint as="offset" />
          </mxGeometry>
        </mxCell>
        <mxCell id="zYUKVJfDLjt4ml5X1DfT-54" style="edgeStyle=orthogonalEdgeStyle;rounded=0;orthogonalLoop=1;jettySize=auto;html=1;entryX=1;entryY=0.5;entryDx=0;entryDy=0;fontSize=12;startSize=8;endSize=8;" edge="1" parent="zYUKVJfDLjt4ml5X1DfT-0" source="zYUKVJfDLjt4ml5X1DfT-35" target="zYUKVJfDLjt4ml5X1DfT-27">
          <mxGeometry relative="1" as="geometry">
            <Array as="points">
              <mxPoint x="1910" y="184" />
              <mxPoint x="1910" y="653" />
            </Array>
          </mxGeometry>
        </mxCell>
        <mxCell id="zYUKVJfDLjt4ml5X1DfT-55" value="Using Inteface" style="edgeLabel;html=1;align=center;verticalAlign=middle;resizable=0;points=[];fontSize=18;fontStyle=1" vertex="1" connectable="0" parent="zYUKVJfDLjt4ml5X1DfT-54">
          <mxGeometry x="-0.1221" y="1" relative="1" as="geometry">
            <mxPoint as="offset" />
          </mxGeometry>
        </mxCell>
        <mxCell id="zYUKVJfDLjt4ml5X1DfT-56" style="edgeStyle=orthogonalEdgeStyle;rounded=0;orthogonalLoop=1;jettySize=auto;html=1;entryX=0.481;entryY=0.001;entryDx=0;entryDy=0;entryPerimeter=0;fontSize=12;startSize=8;endSize=8;" edge="1" parent="zYUKVJfDLjt4ml5X1DfT-0" source="zYUKVJfDLjt4ml5X1DfT-33" target="zYUKVJfDLjt4ml5X1DfT-37">
          <mxGeometry relative="1" as="geometry" />
        </mxCell>
        <mxCell id="zYUKVJfDLjt4ml5X1DfT-57" value="Implements Interface" style="edgeLabel;html=1;align=center;verticalAlign=middle;resizable=0;points=[];fontSize=16;" vertex="1" connectable="0" parent="zYUKVJfDLjt4ml5X1DfT-56">
          <mxGeometry x="0.0964" y="-3" relative="1" as="geometry">
            <mxPoint as="offset" />
          </mxGeometry>
        </mxCell>
        <mxCell id="zYUKVJfDLjt4ml5X1DfT-78" style="edgeStyle=orthogonalEdgeStyle;rounded=0;orthogonalLoop=1;jettySize=auto;html=1;entryX=1;entryY=0.447;entryDx=0;entryDy=0;entryPerimeter=0;fontSize=12;startSize=8;endSize=8;" edge="1" parent="zYUKVJfDLjt4ml5X1DfT-0" source="zYUKVJfDLjt4ml5X1DfT-58" target="zYUKVJfDLjt4ml5X1DfT-75">
          <mxGeometry relative="1" as="geometry" />
        </mxCell>
        <mxCell id="zYUKVJfDLjt4ml5X1DfT-88" style="edgeStyle=orthogonalEdgeStyle;rounded=0;orthogonalLoop=1;jettySize=auto;html=1;entryX=0.002;entryY=0.826;entryDx=0;entryDy=0;entryPerimeter=0;fontSize=12;startSize=8;endSize=8;" edge="1" parent="zYUKVJfDLjt4ml5X1DfT-0" source="zYUKVJfDLjt4ml5X1DfT-33" target="zYUKVJfDLjt4ml5X1DfT-82">
          <mxGeometry relative="1" as="geometry">
            <Array as="points">
              <mxPoint x="3090" y="200" />
              <mxPoint x="3090" y="1559" />
            </Array>
          </mxGeometry>
        </mxCell>
        <mxCell id="zYUKVJfDLjt4ml5X1DfT-89" value="Registers in DI" style="edgeLabel;html=1;align=center;verticalAlign=middle;resizable=0;points=[];fontSize=18;fontStyle=1" vertex="1" connectable="0" parent="zYUKVJfDLjt4ml5X1DfT-88">
          <mxGeometry x="0.3105" y="-1" relative="1" as="geometry">
            <mxPoint as="offset" />
          </mxGeometry>
        </mxCell>
        <mxCell id="zYUKVJfDLjt4ml5X1DfT-91" style="edgeStyle=orthogonalEdgeStyle;rounded=0;orthogonalLoop=1;jettySize=auto;html=1;entryX=1;entryY=0.5;entryDx=0;entryDy=0;fontSize=12;startSize=8;endSize=8;" edge="1" parent="zYUKVJfDLjt4ml5X1DfT-0" source="zYUKVJfDLjt4ml5X1DfT-80" target="zYUKVJfDLjt4ml5X1DfT-77">
          <mxGeometry relative="1" as="geometry">
            <Array as="points">
              <mxPoint x="800" y="1600" />
              <mxPoint x="800" y="1397" />
            </Array>
          </mxGeometry>
        </mxCell>
        <mxCell id="zYUKVJfDLjt4ml5X1DfT-92" value="AddInfrastructure called in Program.CS" style="edgeLabel;html=1;align=center;verticalAlign=middle;resizable=0;points=[];fontSize=18;fontStyle=1" vertex="1" connectable="0" parent="zYUKVJfDLjt4ml5X1DfT-91">
          <mxGeometry x="0.7421" y="-1" relative="1" as="geometry">
            <mxPoint as="offset" />
          </mxGeometry>
        </mxCell>
        <mxCell id="zYUKVJfDLjt4ml5X1DfT-47" value="" style="shape=image;verticalLabelPosition=bottom;labelBackgroundColor=default;verticalAlign=top;aspect=fixed;imageAspect=0;image=data:image/webp,UklGRqyfAABXRUJQVlA4TKCfAAAvT4PNAFUPgrZtk4Q/6+/7IUTEBHB1LHv2BHp35L5yZOzRbZ81gAfPlOuHWC48G6oACgiGkwAaAdw2MATULeaDpyaGymVsKthwrTJ2VkkBnSu7Dz7exk1LBgWeaMNgWVEBKKOmShWjAm5ZKr9S1hu/516LtG3Pa9vOacHZ7kDE2S2IMCeUc84555yzWc4555xzzjnnnHP8v+d5vk/Sr1/TyLMJ4k4NWA1QM9SQVQKz1IiTVjdOPmITTufFdhPMZ5Xasenr0IoTB9iCs04TFnKJHSTnv07JSQ5otGE6h9WQsamRyJhVRkllGFcJrFLtHrgH23B2QbU6cAIWO2gKijoMaDagkPlEG7sFHuhEbiQ5qGqAXUaummj2YEK3wU1Y/NBVqpqrAR5wVG20qJxOGLXwZk478EPVidWF2QjzQTZyDnIibmzbOp4b22xT2nYygwyB47ST3upS6rcdSZJtWv1t//2vxCPb5uxZ9/6r917/ZcG2VbfNxlVjRZIPmd6AkDjCj/7onv9/2ea2+T962J71D2gP+R+IdvfZfXb1LDPDs6vdfXafZUYtoxb0LEnLzLt6VsvMLDIzM83cu1K1133d3+u67qIyw4khzJycMYPsMjPLI8/kqNx6JmDLmYKpbDllruLDMDOzVK49YWZm3KMyg+yDMHN8pjJDUG44kWasGbmkNszMzLAOMzMzMzN+yhjmZEtHoTIzhpMthmE1AcOMw3QpbAozqrnDzHAZJyiXw+xs0VA0zoTBo6lnlJlfmJnMM2HOZphZh2UKJ3sQjhyOTDNhBrPLTOFILmvLGoeh3GqPDOU2nJzJ5coQZuak+tYzEAQAUJPw/5+oGNg0tqIo2AK7bde9W5OTwrZtjtIKEJHeYWmyvfedrTOD//+6ThRBBBGRJqLpPTmm9d8XZNu23ba2lWVQEKgJ0C/oYYw5Hr33+aPt2bZlm9uqv2Dx+sbMzPiJ4VPIDZvDYIyXKSwH7XiFmR3mCbOdCTMnZeb2N6znfZ7nfZ77ue/zup930SyYkkWyVLIrWxmFE4/kFAwhS1hmZm4khx8ptKhsxwqJGSxZqeVRHFlhkArWqApboyp14+QDOuQ6xVkcGquunKfMFM3CohVb4URqOF7sVHE15dCsKkltlbl1GYPudKFBJYMUl2kkNygqTM+AHNdyZuIFUYqjirmWFSo5ksscXDyFsWZVrVOGOySXJrHigFY4uT+kkRUquXMvxS63rlUwFJ0lN0U3ilOYjFVmmMpeMI1n8ZpFo5TbCSwMqdwmaq3IkYqTtUp2mdkpGBbEOuOxGtcp2XJrh6bMUZ3KKQblMrlBLRW8OI3LLjNEJVetVdeqU3DdcBSdsUTx//+zjXe2bXSd7fWxKjNTHGZvzeEvux/Otn03q4i+MZt0tSQGAJi2DWNoXAiMmXmlu7s4qVtnzWLHLEtGmQMOQ5n7LwuSJFupstWLeBC8EYQP9uzZFz8/FfiZv6bJ1eIT2KZ6WefqlcUKea1Y0srpTrNF/UyWymDotJpJobgkUkgoxDhCjsGVyExzpkYYYobEdlAMAiLXb+j5DHwvfujJh3YAdeYN7mygUQ/ifh7r8/+v7ezQ5/m8/F31vW8jbPUlP+sxL3/0ax3LKvtcx/hBF0zmPz7+barnVa72olw+qxdNWtmj03SGSSyFaEwNTSz/0HMIIpgrz3645OkNlUgK6TQ96yJJ21//o6kDTcSMTLzsTWBz3HBRKJM1cka95IqPxPSA0B0IvZ0bMPDsR/5C3xE5EYgZi2tJhZRSiWm1mEFxmTSb1bDZDZ3bUvksWSjqF4t6pVzXNe6Ui1uVEqJK1qqZNevkjQZFvXFR67GojKUs939lH2+4C7z3kX78yy3+gB/6MP/qD//7Lprd6aP/JyPH5pozNbf1Iz7ZwOjtWoauD+9rcrvv665uKF7mJlQdN1nmy2X13K6XWrFDBUHAHkD0Kndz7CWE/qEfEjmRiBGHqcmkmFFxOQz90K5Jt2pGNMhrurlqmNee0TXuFnLkcBkVm1yIS68uQfDt4xbbQv8mWmQKAVe6g7+3v8ZezOva2DeZinktX9xNq9mYTAmOnM59iF7lGURBoBeZGkmEnNmwhV2/SkI0zmu6/PrEvMpZ2guX/1ZjQIssq/qjbfRdx1Ghl7KJbJN1FqVCcXvfwhBrIDTfQIFDNwIxE3HZRbEFo36FtNU4r+ry73VP5XY3G3lpDVr5es9tntf6lQv3+rXXrmnDxVLRmeIn9NFc3oMwHLYScPXU8luyXNz+lrrlNct7XcOi85nVBNEsFVV2/smGHs7ei9b4NqlqRSWX6yWSYgjsuPMwmuUBoGAILN1FcyXiXv28rlt6OR1bqduMeOLokcYrfeGSyns2L9WfK6sU1cyGjEh1b0HYq78ODZ9KiVd27zol/as1jKg6i+/TXzc0H3NZuBeosa8zpVIipeIeF81yAFEo7CTkSjeGWdMmRU2nqZdNxW/hv/vT0CPxgG+lT30/XpgaLgp5425cLvkIQwBw6w1CYieZEAvZfq20odPX159wk0fZQv8WImKcxO/2c297qGWq83o00W1ykEuOQPU7A4DTiEjM9IrvLun2UpR1OqtqKblW2QpiAxExFmwzceajj7k8iNfhA1o7NqfLQ7P+w9K7NUyVtKVT3JEUss2Ps/yh82asfib/H5vPtIMiAABuAf5Yb1LQ9rdDp7ycbrfJo2wBuo0AzmHa85m79c5Y19mCcSc6V90DBGCgiMTMILnu4s5wuhJU1ePu9CIHAtDp5FqNdZ21wpnsf3yQEQJDAABBoZuCC6Xirq4sHcH1rRwAjmeEQXbfmqaXdTa/60Rl6hgAXjsqM3IYuk7e0JWoOlk9h6Hv6rUBjHEge75rVjGTrhKV8loqzfUDAMERSCnF7uKurmQ91Vf7JwDQzwkcwj5Yt0xwe1w4affpxsMAvPhRdKbnNFS9tKYrX3N+gujM8OJHANr2OfuVWK12X1p+FKYBQAjkpBbCmurK2W95+T4AYJeXf4rWJxOrjkqmxMkBgDMxh9sOXWnbjuFmDgAnt6YTr46sSSbxf1Q6bcbkCgCEQ1b/DfOarsz93P5vEQCWsLdL9Roy6f9EmbQRR8gDAwiD7SyGrZfXdSVvdRbxhADm+MHb+kavHpOtxcvmjfhCsgMYQGhkZzZs3byuK39PcJb/HhFrK/yOJ+qFo3xeTyhE9wADCImcB6iVNXS1UHmbvWJEPPHIb+k1YyzrbNeWmjEAR+h0rdgaWVNXF81lRaUj4khGfZ1eLrrLmqsGEBh6n6t62tTVSCWM4sER8Wsm4pWih1V+FK9+CBzLER6Brl5a4IJuDXEYO0vRi+RPH8XTljPRASw6i2aeRFc3vexuIyLi4f+jiXp5aLQs/InFANsXX6hl4o6uhhr2VqaA+JQ7uH8vjceLi8TtMNgEcALdaqanoqyrpX7nv79iRLzj91uqF4V6ZTG55DsBDn6UiMvlk7aurrruyGtB/Ji1r9sLwt42e/wT5jKUrsby+VIem+fjtWCS/0d5XM8/dAHvfvgm30BXa+XVZGzYOuIT9SCYfhQvA+PapDMaeiBg5GyG0dVd39ogYp5/MksvAY0WhT8AIAxxLlxXf93uyhCx8madfpXz6i4DiM70M9DVYUtJCRHPqASnXvGkFRJbgAeAEwulekro6rFVPdFvQ9zOUJ11E6mSs/Yd+oDPIPhcjYuaTmjvWE6/CGAfTSiMki6tYRQhERfZHTV7XM54JZhpNXtnQDAIhtNpzczeuZwZJWCqyjdipEYf18l23omlACA8MYu6nk5D707Kmj0JCeSLcOWrZs8lCWb25blKxtyIZH5Gvki8XSVp9j6lXMS1mb6GKJry80ppI2KDt+pEG9s6m0zxAI6wXNzWdSqIkP2QQs6i9C3YmpAwygAV622fpPzdbnfeGgS51wUhou8PcpKNa32SSnMA4gm1RtrU6egTC8WIJ+N+meOz8yWWMEh0NG2jpSNip8QXl+kMH0/33wOIzdWqKaFT0o2I5zoeMscfZAnthEfT+h5aPjNErPHZnN2KZTMYxo03AGJSrWLa0ompTN84Bzzi+c5D7UciVc9tCB5qRzKfeyMR0bRFV4b40F2Un/4/J9ZEq2QmQy4DiEqNcklbJ6eUgrZtxt9oU2jfKBumlChfNZeu3khGNG0ZQ0Ss7cVn4qzuVZXN9j36EIhETZKeodiP6EcMou/SNwZY9XyI/pAwU6mclGjasEMjHnM2zuieWbs/668MzLy06+gk9RCVe26Jq/gNF7i02X60erRUmSg3oDnfziUmmta7YPp0EaeX3wydTXfqPQgAJ2KXcD3K9rcoQ1g+MnoufKMR8bXZKu7R/UHeQ3sIuPoQFaR/MEHRtGLeGTH9v+dUWr6v0DcdW7aIO9Xp6g9C2Lbd6k+GiG1jOTgymRpqtYecgERF06ppFHEa9TmNahVlJ2oCjhh8cp2yzkG1cuCWuwESnovlYSOYUQKjaSe8V8SzPz+n0DjX6QUCM85uaQJ3CPyDI6xbXo1Wd8ud83J1nvRo2hhGglj5OTl9Jl+LZ41IAJ+2l7KsE8ct/0gD6pZu+fINery552iy9448AE0SEg/tAkaEiE+5AedOqaTpF/rAbf4Wnb6ebPBYKUugo8nuYQY+yrxIm3brbohzD58sACwbrQxxuUt04tQtSxGoDrzzyeoUdkMd25q7YOXiMDU8B2PeH6QUt4/Qhm6QrKv9h0bz50KLowC0FLNXxF2V6qQZz+YkqeKBLe5fJ7KrwHyEbfMiGOeGibZtPhmj+VVTqT8SABe/E0R8/SU7Y2btDmBgi3oqKjqVngvnWoiy0K7yKRtXGZqcu8qtIngalPyTmGgFd4J/jXhP+TldXLNGP0Cfo+t0BuHZ9knAL//gI65ymfaxyLw6mj/3qpXTh8Q5Us91MgdPdnEt+jHCl3G0i/mIOLyzcqo0WBQjMw1Y9F3qWqZqIiIOMYLz1Niw9IYBPAcwi2J0rVNupkaKHH9Y58gh9AMkEfKT6Nqnl31hxOH1JXzfCTLh7XESJZhOtusad3VtVCqlI252Hs6OkinhNQiBdErQtVNDQHyOVJwa41hnYnMZcMZm5ZTQtVSbSZz6hDiISTkvXur64QlE76Rrrb71mPGeHtZJ8ZrOVDedUeAJdO3VS6aEWGVjzogsEQn8kLyW1LVZ4wqJeItOh5pl+daAhFzpoajoWq1mC0es9CWdCpP6T5gOjhkIesVdT9dyTXkxiJ2Rnj+P8+D/3w+QUoq61is3xGj7cxakNSzQBXbKJm1d+5XBjSKW5Rz0/uQFgM+la8NGgbid6pyACv2AwNA9A10rtpQVI/49lW+8m5OPB3TJFV1LVg7i0T6imlcma3gOIsw1b0Tp2rLPaiW2jtd83epdKsUCkYihrDtitM2sXPhO06gOsUKVru6idHlARs3pJFa2uMRf2+ajuQ0AZRNTgL44fsRVj0uNyxGdmk4L/xF0IqEnUlz0D8qChrO36EOm0jBSS+wWe9+IodT3wXcPBEgkFF2nVMP6MQCulTPwx2kBQtOuG/ECVfYhf/e2cxDhTQtEfZ1Wc2tH8/sDcQGpNvggkYlfwxplF6Gp8XgL5uVIgdNVlnf6I7O5ZC5250BPmS8IN4j0fia+ZJi7tMyR3i47ZYNRIqbziBVfx6fMR00fky254oEo1NgOnVj9KMLmGL1zS7mSaA0U0MAATNtCkDXccgNPQVjWu38g1jMpN1xMR8sNrCwmGoO8pwn5dD3qRcxthmpZ02U+OLKBTJrVdWLNrUzLjUYDEWWDAZRijoGUiVFPy6Ym4hb/9GEml6pzeQeLX0cjlH6i1j7XjVjF6FXyZmNg0RWSlk4r8JXFIOOogyU0fcEAaDjBKbYm8p8Uwr1tnpb71DcbKI9CmVN+EzL1SV+JiI3no4Z1bSggFtf0ZlH7zkiB6zWgJjl3yyoGZmYBqCX7NlArk9KGwMyskKBpE0S8ftVrQtvjaFwFzlenWdgkxQYRQbmc0cRSvkSOABUjtEeWFeaj5EwrQpxKFupWnbLkF3rwFkTFop5OOt/sMoQkgroCEfLxNvICAkGrj7aJ9Rqe2UmaLuDY8XJmqWYVTDrAE9bOGjr1RMthn1vY22KCGw6mTQ2Q4laGthIoSsucnbIAxJOcueFq1IyZqKmuhKmviINRr1JqDrgrXacfBWMDikAMNGZuZmkahJDr9A1srk5zSlkBjUekrIAra6OcURnvQC01aVOHubeIOarVSjLDUQPoX1eWGtgkkSdHoug3QiKnf494aaq0qs1DGBUfUXGOhz43LPgaZzhoyWnpDPH9L1aVFrud33/WFac5XV70TAftE8tHDKUyTeY/kVCIwKfVtXwjQox8smpSD8t8CGTD3kevr2v7PmsK+J4XoB5VyOt3hkV/A13rl1dEjHQkKvLRri3WrQFNUDU+ApbJUEAKKerWgXwj7lYNMl2heVbF6NaCSkBsUP0NWM6q4d5DF65bDzrh2rDt7IcHUXd6WWUvD77CoPuko1sTanpeuOoNqDk1yoqXIIQjcp5fty5UV454e1WpuFa+mQ5P0UtR1hWcpTno1QG2FAUuVVUvomo7FP2FmXZjV5Jdbs2sHVvKZXEik6PgpciI3VWz6sw9K8r5b1Ls9xF8Kw9yijyTd1AeFcbURfElYhQ1VhdZbKEAOS2lK4Y+m2jGlbm1uVtXgUzXhNg+/u0M1ZZxb04uDnPtW1cEAQUWVDiVVSZ7aTZG5bQN57inZlb2kRr5ApbBILAhnqeAJ19tm7OFhZOuHAcbJGHe4qhm/dhSwjuejspq6Juf0EPg0B1daf4fjdFo5PPQxIhsi0nZYEsDA0tnAUlpWB8C0WkHqwpNX/UyFvkalMmzIh20QSuoyFsUv9Z9UYO4vAiqqtUFHgGEE7bpvJ/CbNYDfR4wfbJklsyl2USf4e7DadnRB1HzkNZECG8AMgMyyCSmMUA3pfS6NIFkDYlSXzHoS6qozrMOjJhM13UF4vMo61N0KgYY4qSPUf5ISpT3xoXgnAQre8FyOpqX504xfEsoL9rV4hxLUEvKZnUgPlN0RSI9NDOiPAIRktQgKUZmsmFFmtwic8PUhlz0U2eoXm6PyBFGIOkg+w7xP6sjpVICuCtdaSoPcjlRG9QKBl6zC0uj+4K2Otw2T/ujtD0XVkxHLZgHwKauhswe2CIlOkFowz9bM2BCZ/dtHsDc+1dqbfULoJyq+O5Hc/uDfln8BDSRZAKIf1392HMgtRR0BWqADX9t4aHpITUsPPXV2sRqLKWdMu22uB6OPu8jJbiJBaI/ddrmBvfLT2ZWhEMoKR3xXNSOmwDmolynsLa28tD0MAJzpfJAXQYk9R33GjgpajIA6b6gjJSoimyD7Jq47aNsDT4aJqAiGvetehr7llmzuorK0lHhT6+HeItqxlEB/esqSrs8OhNIfhH/pKopeZvLUrqqetsYnRGkyhCjqBVDA/kjUrfG5E3JIa5dnUgoRRxLEdfTrTOtuQXoNl6UGnEH8OTBkq6nW2t6wKD4eOrDUPh+rnFXt96UyvvjStXHabfeoHza1q05jeKd8fHUxiW+n+mHdWd7f3VxgaHxTmuqW3tKJaiauJ57xrH8St360wPeGkZREaUxrlq3BrVm1VBC49yBs9CtQ/1WlVCG8CaA29StRVWGeN+qYD+r/nXrUX4Rz0UF7AX8jLo1qdcT/p7COwbsl25d6m4Rpy74GpTmpFubKl3otS39QGCLdOtTE0AsQdi1zw6Mu9KtUUXGOQq6xtpFnBRmqFunOg8MGkHIR+74hTg53VrV1eLyBHzUj92/OJyobr1qcnjHMxTwjlYjX5kVyxoaxFcXb1H2uY6uW7P6opQwilg9JNC3bt3q2BBDCbW3/MDp6ypGozxXPU11nySKxL9zuh+ZzKdU8k0CeYguHqKwTUS2Dk/vQ7NlSHobjMwDk5l/fO0HT3zgKy9o5ACH9uH5LxnwMuMA4HR8Pm28lJ4AY9WbKOPsZIONvM4auyqPMqtylHf9gpp6yTUhLlGgzQNRJ3s31ckzrmk8T/Qznf4QTz7OazmByMwnHHkIz92HryTtD3z1rdW7wbO98qnk8XtVSa8qqxJm43XmoC6+f1w/y5RNEvmjnxn1x4Ti4MxWgdDUU3jBvZFXOAyILkOTcVQ6ScBmqcQ8s1zk1cvielXKrMuYTXm7qWI21e22dvRQz+0buX2P0b6X+HEc8eO448P4k6epn/V9hg+XS0H7yiNmiKZSXl/AKWyj8Qr9j3+XbCWZHP/cLibb+uc9A1XxePLtbUCQTau6PEShhq4O1M0zJdwfF/MpjnwMQW8d4AX3Kl9w2DIOm3YlbvPoZWm9qmw39e1uYeNLnieYPEsah09n5os/smp9+m/M8vaPqvq3uJC93rimClIvrvpBhCgS0+CInF6KsuLrsSyWT+I57fek6nV4tvKJr7i5vKOLUHgUi03TiHkutSxj1xs6bncwzF7N6dxUc7mWlVY9bJZSMj+Gqh/ihkWvqhzxa8TYjr59f35dyfVcFLtLYhn0xxh8uwRuLm/wIhy5SsFne1gl2o0jPhiyq+7CAi5zYs2yWZ72NL/ybHIXeqOt5oUNirCVl7N4S12x1csyhdxLMv02NFl4CF9xs4LhUTw6zaLuXM2qqdsbsi7mredQrQ/2iL+ZdUzsXtwRirtZcbXhbgXYBtlPriuzKkkye/Q9rnwMhGfcLEc8/gmF9X2taDe+5NmwkHjDG+oEqyVAAbMv9p0z/tR0BD144cJr6+xHVeiLJq2UHrnoj5HExgccsSkHdB6RTLoWt2XNZpmGxVV3H5SgprbTcONsyjPd3OqzE3PTTIXWGucDvjOst660GpfFAu7l4P3hCZvyhy5XJ6e6qxHtDAuuP2rYHcnuAKuGYVMe9WK++KHE23jgSBcgsN4F/A3FveDsCunRZjjRezblBw275DdF9KqJezQI6Ln3OtYU2JRPy3ZLom3e9nuerLAkFCIWrSuoRkU+n3vZPb9owqbC0UkWuahpdwYhvXTQJtmUGs92xbeviTMRMbK42nn5/76BYqqf57q134Zo7m8uE/NZcbMee3wwyOn+5r8ksx855/alAw7HhNmjgRajG6IqknsIwOsr5X60Oez3FbIpZzLJJhe1o51BVjuq92nZlLaz7o0IshzvZyFerJC64TUqPq2uhJrk+VzR93NhU9HIdQF1f9MGcd1fge2iEZtyc5nNWYy9wnn/SQnIYWF+uvJpWhRyRz+j8i2bikwn+dT92NzBILGtehPsdtIKm1J2ijPRhJfy8dJE1OfCj/ifFU9R93sXPQavmPkg8qjlwgxCC7+QsTDz157maYjOJ2aIOQqoPEZyWloTm1rZSTr1PgC+ZubEGaW5Aw02DLnkC9DOiwD2tpTom5HGdDp++3JoB/dnjXctcrOPywbTHKR1dVe0z4yZJ/eg3yC4oyYKp3zGLBG7JT3ThKage5kXMwdBlzkckNYwZJSJmX05yppOPzXrmdl7Fli2+FqkaWYH09yk+8yhTUBm5g2etOiO+CGU/vNmcTn4vzSBqZalUul3IzBzPDYra7eG/RkfuKiMOzlLWYdi5hpHflhC26vxcrIQiHZz7/FQNXHJF/2MwNbMHIKMs8u7scQHQ4o+PEfMpXE2oTtZqJBeUHdymA69WwL2y8yP9ICasPJSOBWRdJ3/2OsS1k7yafX7b8rsMfhvJhXN1pCoHvDK2SSbAmOSAo+1JQTLPNP3EdWu+nUdO16/MAZ2AbGXakYTk0pZMqF6ZubQeLyaZUr6f20szd6ZJBMMw6i7udUw80cKqvz7BSDmI4hhx2hhYAtXpAlJyeRvNL5l5iuqYDeGhMWRODFbuf0wrBVeOLDz0/HqwA5W34XQsdA8mN6a9MzOX9B3DvjOKy/NDs47DeNXXh6whvuN0mdm3On0Cb5zaxJJsOXklshf97xZL9IhSTZWFjOX3Wv9RhNRVoSNj14IFaRXIajC7PmiH12wJTMn4zd1owdD0jZidv844mlA12y5a5CeuBXhAvzAXDq4oOgaBuetJwzThekY1WEGJswElC8duyzs4ALlj9T9b0OiXEHHOI2ZH6CH6qmYirhXMUMByE1Ihdl7LIqZ7OeAeMrsEw5dxFzqbxhfg9sOoPDqMSIgVw6loxfC0ohuJEWksZwg9LB8u4XKhTjpHl7usmBtkjnUPN9AREXccxPCRhcpHAd2lV7RJfOHyq2WE0ieDakbj9n91d29nzBbjkGIjQHrRVHqFt31s+tKtfF0PDkYTy8crO6/hRl4ZTlbsHRSb00vPOEki/yBvvEY0qWohcRLycwPu8YLFo27EcA2l/mUuG7hFLRNo995hEPmCGRSUq8M6duM+edzd1cAVwtXKAiLMQzZp/k5H9S+70rMAGTGbh2YPSHz13MPIGkG9pnMLSXFTks90RTTXTc+5WUCr13se+HUmdlDUbgFL3DIHINeVzEbo7nM8j7cPWAmjvt9e123nAAf/hi8f+X24oLZRR1UQMr8QZOmxIkZhLkVQHrQmxFN3ZoXCP2ui7Hi6zkJRc9laTO8oRHzzeyHYZ7+t9m3K6wf7mq6PqZhmOTW0swyYSKYBOB2wCNhFTLvJ9s0RCKnBmHfqXFciD1Wc5pIXKZPdMV8EOXMxjBTq3JbzfncMrF8wjDWeaHMcZHKKjWB5DwQxwW4VeN1awKR1X4ZgflNXO3aMFu/1zq7ldGdzOkZHgoL5pX1nYMYYBgzbpK5xuPSxJHrxlVDPi588ZDfNXH44dvJHBaPS+uVYcaK98QrI+d5kS7Q40UmfpZyEYhLxa6XrljEZSwWGMbifTJP7kY0YcQ3Vgj2qCUiZiAMpZK/oemSORQeX7dhziZircDgOOIJ34YOpr4NXfDzyrihW7u9C9MDkNB9guhCO+T4lig8nfBXpg3txgTDWF82zL+AsWOIQgaI1w30mFpes2mYBQWhZpaOy/fM/vFlIbU0zNtVW/3G9oTT4Dm+O3GotJz6uXWgjiOvfHrH/vMyXllnIDYYRhWtBRJzBe8jjIEivOZHBNnRYnWaIKTV77ee+ZkmED8ZJmZ+/39b/xVuAjzB4Yb0MFp745DzMi4cCMYk4YDi87z/PKeniT+34oRRQU3M/t5HE0Oqw6OFeQBVUxLEmFrmcj/8kWvmBGza2O0Nc7eZjVgrZASBeB7j68L5aNFXFntdt1YH1nvaLT5MNsb4vR/ErnpmvfO7ICESs7z/lanmeutpPaiwTnvilESn8QA0SuUrd9zLsVnUmzDj+YphbDBTgng4WAcSS4iilj/X+N8XYXbC43J2Y8gvXV5Np6oVI/FSiJyYx/i/BVETYHXg2g6WowlA7TwTXzwyTzGfWhqGemAY244biMx1HI0Qxld2O/CO5XIbyR+aAGQzXxzgkDmdmI8neTLUBWPJb8XcclKsUIM/K4Z2jJr3h7gUARwtagjmOGxa3+0NQ20wDN0n89zg33N4KYj7A3UczKPhKDTwnQizX3jxzoZ8kz1+Vev9ZJqUaa8pMF+5AJpFEe15QG0V0o1q0CudxBzpgjkZuxlnfDBUS+mGZh5RRhrwuVFsFNAGXyJmALxeilIy9YY5KB6XMRtD1dTUbpivcDXgF894STBVCv4ozReOfpmeRf9nDdXTWzGH8g39SNRXCmfHHdpA/tRA16DIf2RmJ3JVNdoZKqj174M54yw0yLMYvEUg518DccqgO0Rf6Io5m7wzVFJNMGdwcaBPPgJiYyBKnPmIHeLeaZBLqt4wR6XXNkM1pW+ZeZIa4Ckcq4RQD7U0hoR8/jXKpfGQ5JY5q1wYqqrymUv3HpoCfL45QuK7Ang40esH5bODksl8Zu6/qtkYKquM/DIDvhv+uPCeJgWe2FxGdKbrZKubp6PwLXNyfmOosApn/lOXokGdlHAQ8LWgtC+6nx2Sz708NPtAF8X0ylBlFZYeP9OKwd5j5JihG+Sq7/qIoHuikhLLZ+Yj7SnaGyqtGEGYdwH2NC3hc8wDNA+Ac9CJdsvByZx5tgYFrWycYyaR7rxM82N+9YfQYE7i1GfcLGQ2AaB6Vro+qwd4zqHIuJrdGZaCHCtWMWBpLo2TAWOctfI3Zgb0zHyB1siQufeD9ddplly9YU4sbgzDgoDdUXTLeVr2IPC7yYBhTIP5XqCeO7bhhQVLesPAETpEX67lCplzyjvDwkAUxoSxTZICIyXmncDcAM3S8fjB6vgQQPPdVd+IPzTh2Z2RYanICbNLdpgUhzZBi+YpyllRpbJHddTdACbm6C2ZCfeR7OVX58gQYfhw7g3oNlFEAEqf+AM6xTLbL8xR6KRntzcsDiyq6bo5PQKCr4dXc+tOp+626kX6JtOxU9vTLG0awMrGGN9Lp2R3mj/pSRbBvFEN4LwwDhGoqS/FXJ+EYgfPvNOGYXEgTTW7YMnHLEHNWOgaT5crkjz2LrKa+nHBTlp6+dfTOFfmi4F4hihbia3jWYGkH1A8V59rEZre8dYXVEvDxBLf6dlYMjaTrJw6LC1JwcTwZu4mJrBkALs2puhfWf7dgvvjowK4MSK54fBAmudcks/PWyT+7RWN+ENVj3aGpRrbSs8eu9le4PtGguh6v/7ZtgxgIq7qO13lobmMLx/8QlVCfDzf/ACahePrx13S638yr8643ZNhsaY+sKQMoKvlLql62VU4oV58G9y11TTP0qf4ZP5SeKetFu9pyeB4bkSlOsHHQ2fuStwahsXChoreSh666lrXy9hzJfhVz+HESLqRfKxZjo3oykNhsIG8S9Uyw1u/eruYT/j64Ey5NlA1JcgVXx6Yc6o7w5ItuQVwAhfr2AURPug0jW4vkoJVyolrlPdMpr0e11kJamvcXU7HJCn/0rSY1wVuP9oQSwXG38cR6sRqUhZXyMsrYdZG8yz0w3rcNrjCh4AdLS9OhzjeBfeXsBenmfDlP8ZLZrpyKsVRs3xMvZG85fBO3hbc3ifvCpoRv/UehEdL7S/5VOwXXVaJdoaKbf1h+NUPC1YFTxCXCMrs798PuYO9UDr+5xONuWUTtzdUbZX455kuC9qGLi53A4DIGpFwxECn1d4wx2DT8STPhsrtrv0wA9v0pL3iUwKy1A+Ak6WVi/7I/BMMFVzhzKsHVTGI5wSGLqWImFTTSbWfzJnlwlDFBWX+oxqkqQwrB2NdRwA10iapjo35kAyVXIHMVwipjSKeHxCciEHsDQckEk/MRfXKUM31QnaZdw1r9wXOHgZF0xZm3EtZptRHZi5t1oaKLmfmjAF1ASPB+kDgK/TxhXVCxRR79hSe/3dDVedd9luGc1ysBmfGgNMAoT0GtP4SR83ewotKdmuo7Pom+/nyn4L0GiBov8Huvyk+OZ16KorOfM1T/DqG6i6PuEmBh58WnPP2gOnPEIDdrUIjWyfTAYTjYdmSA6BhXbszVHj3Wx+f8bA0KNOo8nfAOmPPfkTo061mkABjcjB02SjaGySCU9fDwb6NsSWuJ+0ORK1PjXOcAZw7YE1vqQqXzfbhRGw6fz9HDoVHNyrT//GbiR6Goteu79R120XEsKlyCHZttJ5HJXQdTjKMcAlQgHME8+Q7YzYKXylA/w8nS+ZHnDF/aUO7N+RoF7r2rqLbmIYRthQR0bMp+SOJnroTCOmV7ebcPJPh3I2tm2QYT5EgJfMZQ3mBYvCYZ6LwXovPXKfS8Hlqcjzt6SbYW1Jg7wJsQKZDVqhYWg7B3w1BTuuJhhFuajx8DcicLr64opeF0jJQ2nXp/FXru3C5/oY1VhVAfhQfE0+pJh9luRS+smOuldpkZUZ5mMgRvvV0OdyzbmDsdbnCueqNoXK7Mu4SGUlfTrtcw2V9y6WT0uXdwbGt4uu9edf1gXml/x1r+3+KHtHESNSk89vHryTXK1r2AsqnlTEQDz39l4gQW0lcsLNNEv8CEG6Y7KGp/jILKGlViTxByQbLTTBHXbNdt1xP1Hrpx7REfWPUPDZbxdh7835bRQpgPqAcGmelXOPdpAAqF5BgxpxvHoZM9ZaKqUY3iaiZtgpCKNh1UBkr3TCXK0/F1gyLOlEc+zLVW7LdhU1AhlBANky6ZDbObw/3OVdx9t7MI1/OGEbDxodW7lqruiL0Seaut19YsaE0EBGmQi9TMNBBwYqQbpgTW8k/y7H1QI/AV0KujLI+Jnt2YTyz1DLHQE/kd0I/jTh7b57yAqAslDtE5TaA53CBH0/mE0MWbCjJkpDb2LWVj7GGx4TuQbthTqLZMlNd67lcBoAKJlkA8+lhLIi19+aeodxtpI/6KuJlKtQJ4DbJfNpizrI+juE0k0WWPRXuGS2irnXjYxzgocn1QbZLQt1Zn+Dvl3EoMffezBnKHRsrwytW6MpzA06NyifVv5khY129T8aPwkysKxDBLo9e9fi4WW8VgNcNc9UTvwjgpoJ8af7ZmTOxsRc1O+7em6cA5K73i0b8IEVKpnjE5iqVh3wpUOZFkuA2WXJpsitLmLGtIkWeixcusX0c98mwtW8ijpWNJcINU3hoqiJrbCZvBjfr8tbHGYO5NA+guWu2ir33ZoFAVg5zZuhbkUs5DhidxAOSMQdVQq2YFGW48yWOI7tQpJOfvKf9rXqREtofswmLH089TFdy5OZLvZpNPNcXXfJhrAlmMQuzJ06nhjRD+bwLldj4pikwQ1h92TgQb1WR46MTT6gkHi7zGZXYMpDdLDTM0ZcFOi2TZwphBZulY4MK/DiNB395qFdnP4YSk53bbuG++eFXfygQq4R5XMX594jNNZ1AO+GEaHAIestwOnLX/nknGnxZEDaquEVaeGe4IQIlxTe4NUCqxHBCUsn58Lrgc68Y6bgU1+G1DSHxvFJvvn7DKUlhy4HwuFRpY34Kc8oo6noknvVwjIaTkrUyfyl4XgkXqbAFLknhHXr1TLtmnpbhtOSRmP8GgL39GqrCesVB34p8PKwX4moNJybV8guBd31V4XaUNUDFP0Qnz1GxT8OpiU8+Kg26hMQSFGSX8bnIkxTfZB+f4tz4FB/wNThkFHhGClq6pvhyV0bfxev482U4OfHlD7wm8azht2GzirFALIq8S6tiDm44PQnODF2jrZ4If6HwWjHrFBagbumaHuHhcK6GE5Rc+XCAa1bcqhCzVErtL/RdOvNOeBGGLMlTy7N40l+mXWxzfQJ5QA/KpWVFo/WS47YI8Ao8paSUea/4HQPhDMi7ysswT+K4veazqC4xmXh+42AP5OTgScJA15LMpWCej6IIT4pLo+4aZJlDGI6TnYDNdizEjJVlxnSaOV2/xOwG+TJ+JWoI5sw00LIy/GhF8A9dXDhxV8j8jaZGk8rbONHZTRiMlPgbHwK4Ub98ImUM9Efg0NVp8+qmJv061q6Ne2bUQdasS/1ysVDp2XJFo0dccf/ZLnvK9mh/bkxOf2qsYVNQMkH5Y+tORC9g5UmrhleKvXxVfse2uwJpY3ZfGuuLHCwFKxMiPfRWu5jRHvop9VYTJ6PL3Yh3IafwAzVljTsWoWtOdddQ9KonHM16zqAzxz2Jp8GvroGWBjEfBbg4vBN1l0Nfq+FwYCcxEZNd9pl0/2pF8bGaOCG0HIyPSgyDyglZjjXOvA9MIch1YinczAI8aSHgVjaW+R2joCVNlFRUPzGFEunBxfXSxKSHv5Z6YK5Jlc8e/kA5+xqnsrukoNaYQdac7NzdagWuAfbfinesgNUbDe9+SNzNOjCP0+HI5IEg06Mu+KQsdXWMhC2XHDEkcox1OU2XvVWWvQgqZHcdypNWROoYRKn8kuSJEUoqGVKsJEKkhx7mQDHW5eYuiJRMJSIPYezibmxOuzmPkxm2LkLEhq3juhUwRVDJhEjbraQ8E8/PcLwu/2vtUYipqPGyjFDeXrxez7pexvzPfWUqXFY0f8LBwBEI0mR+xxwpiJJK0aPvKJEC9fMTLNWOXMTYzMPKx7KXAapppWvd3D2jgWe6FMg0Kf/JjDrjTvgGxJ2+I4ghO7i/Yh6Em5Fj4nlhJZYoYZI12JM2AM5vCFLqJKfwjukYM9LNhGUGKPWWO4wgsB3wIy/8mKXK3D/GE9I2ECacXgw52p1C0lDdbalZetr/drPA6j1Y+y7rKWtfr+es3VRHm1hXCezZOId0c/0kVtLjrspjTYNrduNfCt9P9luTtlS3D425l5JryMpyiQEXAISLQ85e9XzHxoKx4ezi67GV4V6956z9cujJ/0Q9jkBhSXA9USAqjqZnryJIRpfA/OT8aRYxn6AkUySqVD7lvvEwcPAjnTIJ0CYXbsgIxYVoxvBObOl0cbvJZMINHbvT3RU0pmSEux7LA0BZuYnuVXnKytdrlfl/irWban7r63E7BLW4dM3GOMZT1KeY2hIbJPEH2hU/vy7sUzKi5aaX2wGQlS6LKUeN7UckZi14/7KWWrG4K9puYTI+GhgyMzXD4DGzqQfc11mtllOUxSqxnIIHyOxOPZa3tB5rddJ6zvLr9eyu+cpu9zVYuanmvyLWsxjHnM1jNgVdZhSi1iNoZw5+/GPMJejr4o9j2gM4bzk/GdEvTxIwkXEHsl7T8p2DCJQtc/SLY87IADBm9zT10fdD5ouTgNWZkh+NxFvYOxBvVW9jblGK4VuJf934lBOVsbtDSORQdvvHGXD5hrPGKJ8zyMJ+nsyUvHh3lcsDej+H5+XYfiR2rhj/kYytPR6EtHOJbtlw3hhb5oztZ22m5MV7sK4+bUVxvqP9ezx8GT8fAGAP4B4Tdq/vzLrhxEVn9m03azMTDeA74Q3rpTaKNb9zCpiibI2CRyVsJApaT6nchOHUpQkOtRqpNQySoxxvtK3gzmRrmthIys7Nuw/Dycs++Aql18fwjT/DxmHI9rnUgEUTNuwYzOt39qyfOSOJjayNuNkxf1PjI+JEZGrVyKIZusTPWPxWhtOXt+IRSa1tDTeb3iX5eRmExZPdynX6OH4wjuVJCBtjlt0YTmB2w1cuLfrATqAqM2vQB3cpls+brQXoNl6nLH0+ws7clh1zU86gppiz06QJkG9XdRu1LM0YR0CWuXHHWN1wChOa5yYVt4U8+2+RgSOR5ZOOBLdE13A3cbCD1SLnULopcIVSnc6/D9DEg+NbynFSHOg698DRtJwUuReSYziJ6bnksvtowDomQWQZFsH9jKieNqlSh6iOiHNI4WhAO73kTlq9Oqd7M6jdLVCSKZM6Vyt03MQmZWeSaKu0tfcgITcVzwDZmrFibB6iJbd3Lj5ihI8svuGdTrbIaHXdfMm+5/bGgjp6Th1QPbVM8MTlVxj399N1D+PJarfMumgcWKbW10O4R0bUmVo+ibZymwb3yP4MvPIdLyPNLYinuNP/Bqsv5N7DD2UnvpBwvlRJlHGE8pBX/3e5vT5rJFMqJ22jE3ZTcUwRZJ42je630023D2aT7hQ63ip3DkLJWLTumExvNbgXFV6yxX6fC+r9zokGdKFzwGf6B3FitIdq/BRR8Uke1pqCDC16DdNOa2tkntoCrXDS2U1fJA9+jRGsIZwuXHbPzh07gDEIVcMsyHED8RD0SBAGuNPrXh5sf0slrskCmSXu6WIifQdJdfFdtag9r3T7ZYwO4uTwoE6M7E0u6y02w92POzCZJVIx2x+xGCz5lRiogSKcC9b2jTLzbHQ946o1NOJtGwIwkG2BNwPaaWvGCmRKG8b2k3AynW4G3a+3vBeGAz3fdUmbV/ReFKYR9AmSJ1MiJgUx3nKQLwP+bJtRgylX3LzA9rZk5uXholiyrm0iJwN6B7w57NlFtcMWtg1DJJnSuondDvZw3au3+mtouRyXIdTy6KWRKWPhgqZlAJ+coGoTxWbxg2VW3d/AmA9RIz7qj0PArr973M7XCPH2kWRKq6YK7YWr3TIZ/TRGLsenkPQa2TqZEraJ/u12QHfa7A+m0SstD+corwoA95asu+PoAFfnNwH974fdKVASdlFEFDtSbLeL6bpZ62t+wyWf5JnlnmJHCkQUqDzI/974JlwBVD3qyEdWYnIFZ0nU8N4yLwpshxyKenlea5iI4pwpdrhD6kNR6JJfKq6hTCJquLZNQ21RzDFAsjR8Wjk5EuAJaFIo12QArc9HcEfN7MUTUXscTE8rHZdc08i0iejiO9pY7csRy4A5NXFCjC0h6B0cVzxdtycviXjZcXp1nKg6uvONcGuBdChaBLIB7fC6XCENnIgS7it3s1EfyPmuS85Z06CPkYgGfiWPDbEKno1vRMISuM6gNk/QXgpTiRHRuYoshqXJ5LgKA2B9O4Tb20oTUfKdaYb9yG265J+nbCB5Inrhvh3EBrypgicnnbn/BPfsBnlq2e2NEgGvNj6cIlAvr9M0cN+cIAUMePXxGG53Z5mopbfzSXfyvSvxXUrJe22sZbf+Ek1+mwa4yYaPSzKNeJP/UWtW+UT8Y/H5bziAW9RJUiOvD1y9P2UUTxQbQnS2SVmTS0lZUwOpE7Wt98A3tNbHNdppMGhgR+ABONHi5zq0IboH4+fmiT/+ofR5e8IStG1zv41t29SHd/PJ3O55W6vv1p23h+uyXMw0DyajXofuMlF32b9KTpgCBrD+UiKuElHgLlvhAZ0duJSWa+mSDQUmOvSSDVjjk1dpJzNXqs1xIj7XoTYHNfJz85Sqz9uTwGtj68Gdt2a9vlvNYrf+azO7Jr/yaUjSSoCGeY2kOQTwBa/4u9Gqp5dQgtcoOv5gve7nrR2/R9Ct5mN68z/wWsfHf+YfJSqL58LTsBMGpqIhddHn5kky17CNbRBOp/K7RQairvqX/zhWIhOFkzZRN+u1GRyOTgxK9dCI4hkgido0uvcFy+dq/qYvWLn8rePjN3sNA9A0ydnaB4vBtqDsaxgxm2sGIw+pjcJpoEDdwNI2cfvl+E5yGR8nmi5a8We8F39jQnk/ZrXlaokovqFS9+stV36nL1a8vuD4OIuS4DRj3s/NOMCcfGphB66fCeXMkH63fDMS+g/QpzxMukq0BUlzTXELfBCE7s/UYQtLFO9wyVs1dik/v/tXEzGc5Z8uNBaCe1DpNaytyrOBNXJIPyCvuBP3y9B2H2QyX4V9kDQ7KAvnqydTd/OVWD0EUZds0AVDSiGK1ZPvXr4CpXXyb52z5No2F9AGCHUQa6Bnt4E+ykUCPdBE5PeBQ5DJ7RClFgJNNz8UlU4MIqWZGEwRJeGs+nFBET+vRZSooxTAgDEV8h1Jro/b6MvPzVNZMsBPVNbcY2PL1wA2gfa7hdyNnFDk5WVyA0X9wDXpUjQVPDfOFc2WRgeVbHTCxBJV2tMqxwVJ7rpSoit9KxAF5paS4gVLDQ50cTu++CA8EXi0qx0t4bWxxR21+YDx+N3yxRfFKwDXjxzsGrz4kU6QqzRd3wSJlhGJaDYuaDIbokjLMCBMEF6jBk+mjF2TxUIVic4Miub9ySu65D9FoX7td9refUDUTjfT97yGC54MMRuilV0IgGLyw74BRC1b3HNZzMxQTkMRZN84ApkYBOpePiAqrYe12AVTci+N6CwN+PKZPE94PIEcZoVo98dAvbRGkIB4yutCn4OPNjtko4k63iod2Km+C6rk8nBEHbLTlwuegXEoeMwZbj28+2ZXpagiOAIk3TvethjkWVsEihUhelRjuyDLx8aK5CksfHuQ+OAeqacaOPknGMTs0mqGpDFp/2V8vOQpjyixa2U/Ltjip2Ci8qBzivwAEI19+whmdzzoLu7So0Tyl+/7uIhzsLFmUhBD1IlW2QVf9kuUJMQ8IGyK2iTfGzieCsdj/tvJcwCRTo9rZxcxp+9hqXursV0QZmSpUzwDu8A9qLxbbjcXaODktXH7ZtYKUZlB0lkQiZvZ3G4XAKLErlf8uGCMn3MmmglowjN/DjjuCq3MfsSK4eiRUD1zMn5jUOZg440kIZqoky2yC86URpTTBAzAMmn+SHAMh5Mz88gVd0KdrE7P8LMwHytlDmhLmJCbojg8RI+rbRek6UmVXQAldIU6wC0hYK6AeQbQqJM30GnuZlWtqCAodCk6UnosNiXtuM1tHCIpoYF//TVELljT6DPShUJWL3RZANWivnLMx6ymjeujxzflCnZDmNTinCpQO678P+AzAxe0ST13inOKSA0uG+OZ2qJv/QzI2eAnspm568O0zSooAjgCeqYNmLvAY4MuvT1jELW/l3VBnFcg+mQDrFwiPyA0jgDnYE5j32TgyYc6OSKwNa+GLl86dCDqcIfkgjkdaReJ9gyW5viRbLsDxgxLsyt8INyMWZeZUkRi0nN7k2wf/LdMsnzB8PaYGnBBndkQdbMYQKXuFhMcHxY0FokdM6OUikMGxZHjc/JMDKp8tszy+LhrZs0Fd5KxaERvbwCVsfLI7axLc2DWHonPJL2gH/4BqG8bCbWRUxDyqacvOxkD6iHZR03SulPPILkBBxzQXy1mxnmV7C7uEHQs2v2gymeqzI6Pf54L8tRC9LfA2j+4Rpvr/itjx17cw2o7BXNLiTbawJA3Zh8iPIpy8tmE8EVBff+nnl7awZCO1ObauvN9VMn3GbcvT+xKmVrMXCsqBW7BgJwVYLKJpktnJsqn6IyOn/UnqrCn2Jbf3KEONFcMmOKXT9r2ujRFHEaAgtQAMU6rOSgTyyp3Jf7oVJZTfcdFuIQ/QJiWauvOAd+vlPBrzPgckY+lU2NePFui/I/jDzTofI3Yr5r06a/EPV2k/GAyP96gHXVXNDAYB2CIjos5nB5U5f/AkfdJ3pyEDga+2R54D25Q1lYZP2zA9yOkQcwmsyHpueeUt2YeS3yg6o/+nS+bfVaTP+USGKgPHjrzN0ivb5BCaBukQMzMPLCjWepBf9/LnBl/2pnquHB6Dp4Zj82o+mzPgq/hPzk6oD5ZKH5QKc35W9hIGAB7/gUwtzRbE72g7eMDJ60BY9ViZmLnI3oOSLudXNZuSfLPjo/FGtBfgOjfQyRrnpz9/LPn1g+lYQ0/AZ96+kbIbA/bATuA3lctZqY3w+M/kLMQHTgIGlH17eN/Wi0UKQ2gHlB+NT4NSbjdNSrW+CI6ZT/cfDJQBHzq6V30cuZSkir5hj9M/w/vjxjm+k3euIc4TKXGLvLMiNq56Q9UC0f6PJiKPOXApynNO3BAiyIXdtDKoxBGKfhiKvyfenrUnNJxrxTkS5r/d+R1URTmEYfL6NYw1Kw6jDfmG6No11uPmjJFkgaIUoPHffLXzkSzLxZ3S+WkEOwA98ZhDSutkraIkTv6yc70yqDH3Y+NpukSS2qgsY3SACdnxinC4khwJI4x9nUGnkNIz/Eq/iA9/syF0iu4RJNXoAt9NIAK45YNC22xuB8hFML9dsw9uUd6nlS/CsrdJZ7kTh85AWisi3nOGiipEqcuhEK4Od0PjkgmBjmShGh6xtQFJPVnpJwAOqrbSqFpxmzpDiqEewbEOBc+XoKOoBSHh2jUJaI0WgDNBBoL4ZuDpoP+8YJvjmk8iLs5JmYn3N9F0OHJAhD1pMp2iSm/nWht8FRYBssKoqlqVrhwARTC/eEchVyRc/TZCFSaS1Qpje4cmhpr28FAvhENlBwlzkUAhXAjsRXnl0tqJAkxdM4uceWcKSmIAcaXQDPkGU2iDweISHVqxiv7wJgfm5xTDcSGEH4Exk/q0BykYKvMYwZm/LOH5gBviregZtS2opJrag6OTjQyl8gyMnC2aTeN+EtB8fX4ddIb3yZFzgkInNmKmsk7uNwItF+X2LJfirePvFxQFMhzg+ZwBM/mgBpp95SYVdbEfNO0+CYq2CW6FEx/EJZlTcR8+5JrWDvG/G4sT3K5XI+a2Z49P3YmE2rOyRsrQvgRHj9PDsyxfZ+WVwyKwrEkySWSIjXXBrd7nE0uaDljPNHHusSXjyW6EEjUy2erOTgN68cJv/jCDph76jWl5vhkL0GKldHDuWDxLvTK7KNbWTWG6eFoZaAsDSmuERSpYKWSGwO03KThQ/HsaLk8EGrdxC4wR4z/iu7AzJ6kjmN59fnSaBkGIAnDW5La3N1Jy3MzHquLlblrYgyeyiE2LrW9xs1Sc5F935OUi9eJa7JA8mnPxDvRhoap9aHM7Iu6SBLhyp0ivRUglsTZOgZ6KDVoQr3myzG4VYSzl5hr2qBm0Ug40Xs+PEpcKWXjkg1TqfV1vH7y3HG5sqErBcT8+dMcZC6HmCRNZ2Pw0ZW4V4ntPzFzYXOrtHzWAERDlCW7fVcSDYmHKE1QPulDOcYIfCuY1OIyXPQR4flLLDpTkN+SpCjgXmi5ptKPoNm4ZKXlKoq122b2djXRt/J6iXTBj8RgCpS2l36xLJSBcu5ZA1YmsZvFvRMzGZlZ5IIQl01tGt1zyY1Lw5mZfVLbH9i8e6O8bTb7sxvgfZmE2V2/uRaJ+rN3Vauf00EmZpOXQ53XW5G6238WVUzwziza5LBz2253htXYpEppIpBMY9TFQPLmX2FFUu909Rl1UiyEn4iQiyaN1UPQXctSdRMxifjNLaPUoT2y6xOD9DkdpGOQPpOduj+3jdJLSPlOHAq6HZ/bXVOsHgKOppm+ND+qY81jNls7cVy4pOosSsTccv9m8xQNOnTYwtJrueRGNjFG/FkTqQYEpNsQ9SINPahfArFJr0VsgJEUYiG47BxqZKn8WNTH4sn5f6WkzhZLJ2Yo2mdCyBUyE/mRq5eI2OBmN9XffN0F7G9Gbl+vbm5DcP7m4QTUVe+63fmcDhKpcuqu+5hF2uPVbO+HqCRADunWFWnoUHD1KfGxqI8B28RrlVQKxcFFc8QcseKd6ZAFleKSqxrQcSUdy3g5ZOOinMq6lzOz6x7dNQXFPoiP1eCBs4Cjm8mw1F5RKs5TUoOhb1I8ND86HZdDT+fqkrkZC9m4EEWEKpbjeLmO250LoMUi49RGea50TlB4bn4mWBYm6blJaiBazuixoZTs5BSBLly+OhF3SSEZQa0lGbKJ03jRKQIgRZ3SAUROmKe07TPYYp0S2aPvHJdN6bj3DXpPl8sl602yR83yCdd70j+Boxvkn6oBkglihZLO33s4bNEyAkGEDKh0CbQH+dqghNv6zvUMmJndfrlodp6QBpUAx/BNZwyJWeE4JPRSSMBVUgTCM64Z7ci40SGq1CVbv3mGR7RasAg1fNyVAbDJ/MFVKZUMhN/M72yhrcnF75Kd+lnp2XiTC32KJZUuH3xXSQdRP6PiSBkVXHZA5wYVEnGVqBq5uuv6bTqMfN09wF24oVk1AyKZk2F1M8kXGqNDN4DIxvkINfOMsDOJ2J2440zNK/zEoiUdiv2PR8teg4dIxx2n+D5+rSoR1/Nw8WFE2mRCJ79mu1znSb6BMBZPxlesUHehirYGPFoJPS4tkxLw8/mZqLCR4z8Qa1rYsn4X326vq5kwvE3i8oVtUfFgdOF1wprV9Cye+MGZ6Ram55Q9tQHVS6hzH6JBXqPEN+Pu7ZaKW5ikX//m8WNC4dh6CdFJ5Ddfb7mlXmLIrfeTqjt+TOXm8DadONhxLSYvdx2PKs/MXkJtqbp2Jw7G7Jm1BaZtAjErjTwzzZOs5CdmZhRslrgs6fxhDETKwmrdel4mESZPf7NauFOGNHkgWmXF/nLXPMmylfySJ76YhCstZWRK7C6HxGMyDkSb+gMFnGtJnQIYICR+CvDZaJ4l3TtR8iDjNibhqgSKQExKZNAfOQWbEaG9rTQ1UC3kaTb0wlDMEsxXemoA0dS32TRZimItTcKVEXSntIwm5C7yrRNxc+LU0tv5NRV01rQJemwQbIhPU/M06QdzIB50SBpMpj1KIks4yaB/Ag9AicBkxr+WBldCSXfyrsKeNkZXAoIN89NqnmfZhdprYO2YslncgXTPiQhSrhfpnJnHlzzTYOD0XoL3XjRwEHAsBMc3rNlwln1cmJYzI5P/HEhZeNWzVyqZIAhgpygZ9m8OhkdUXC5I8i7RJ3n6RCD6evMQmudZSZKJJfu0yw1rxJNTwYCS2T48AyHuhOPRKQ32Tg0IXwP0rCColqu2QSl2/lNuUw/7dDAyszRgUKYoqy/Gv0PPidKlBq1aJsF5u/O+LtPNM/e6OAWpfGh4BpFOiE9IxLUibfri6SmF7ymp5k3D0IakY9BsSLAR2sPNTQ2goVoFDMoUBMCwq/qjdgo1U54gNgAxDnf+1n7PGwMORbL2jAWBHiU+G7chQW10jC7x5xipNgjcOmduizhT84XaIzUIUqAB/2OP1KBMBV4jwEHZQ2ojMcy4/K12g/etsDrJ1o9cZGpQwie+4qZuT4KGadAqwKCpYQjE5FJskf6y7frDYCrHLatGs4iLCeaetsdUAwrI2yxvi2bPWqw+V8nWs9xNkLKeRX4Ue4MXNBzsj2hNKsCaiECoArBZvnFNwgvz8gPLAn1RjpqZl9QxD+CF8b6lWlmTpAyiTgn3h78kEeeQn7ZLDWTaVB4EJsZ71WxIunaUzUgNU18hB2UawsCyOVka5ibZeHcWdn1CuJhP/BNIEIgaUQUaoYRdFAwlnS7EFsPsZjxu3/twN2uzLRX/2ZZCZnuqHMnGx7MffANC/GnOq5ckXFwflelSBymTRgmAgPwWtljJYdr5uBZeLic1HAe6GpSppG0NWK3swpyu9waorbdHnsoLhyeRzkEESlbEbgh6yySstoomqMMdkkpQAzUBwaSvcfWSXnBQ5sdru29BhTNgUKaWquNdI7eldnmECua42NxAsJ9PxDylMZn/ONzNkU6Iz8vLpEBYqtgBOjZkWpYrajaMI0OrBeYxOx2JK6awIOx6NSpbLDt9TYqkFr9BL7bQv4WZSGL82xROg5SbyvOOLkgYeTeKHSnYca8g74icMjNKw4zpWFZ/BQhXi4zZ2DqbuAogCEYNrh6egS2bFKdQi8VDTs9JdMje/0CIskmCQ+ERBQqidrsY+7/LBMdba1YNT0HBlAUwJ9lLM3DozAZhRafN9kQFASAtnrcNBZ2CaQr1cXirEq3Z4FDIIcQK+IpoODVOlqpBlsQgdOWwfhs+cifKHdzB/sXuSKJ8ViflFNibQcOEXLVhiKS+5jekYDVXt+OaZ80F4QYvuwaBra7QUaUrdLRs44G1tbj22UE6ZjYjKCeYuxnke91xCoZUT11bJ4C16WuFIEPQL1nbBhXu26IONFuH4Y7GAsL0X2XrqeKClapU1aE/aZ5KKKScc+rgSbirPF+0dZcUIABnMzGBIGxxADpJFCyzTqRkEwTJthYp6BhIR9G+ycZqKGFoVoOgdAJDqdmG9iJreF2rGule29rHxuy/xb43rq2TLwga2XwxnpbKCJa+plTbxF7oKxKtLITkQiTlasZ+GgG85SBqL1y1i7HnXguiYRgIKaq2InG2Dr9TsyFF1Jo8NIdOAQrz0GrhEhGdqlh2E3JHBKV13HyQV2NJrZmPtdk3Qzs1Qn9a+W6K5+bZ67Kz1hTrb2J+EvXNNaNiCREITbm+3REgFKUnzZsOxNsmmA4qmLmgWwfTmnFWakJ6xyhXHig2a5Tvzgz3wAKg8Ea9QzQMRLWULw9Dt9t+6dFOlS8dPn7P6tLMWtFVPe9MolnDy2EpQngKL3jc7kCA1owVqJ/GSA5aZqas0DuhYMUwoqOYYUwq1NGBrDGsorSNZA2SfGB+9m2nQmjVylczZ+LJJQpVdKfHJZru4KFQyJGEvJYa2BccUjAesVSaSxZmngbDWqaTTkYTndssTzYZT6j95a/ax1UajdhQfBrj32tFoaZLKFlP1RyuVBLTw5rSwTWNc0sCbJ8eXWo1RUdQM0+IdXI3uzND3YHkfHbV8n/OLo9O21c+/5yH5WbLTlfhh/bYKP4GSfiHHqqlBB3yRD95dQhQDNUiLQgJhlvauZ2kU6tuWtAsGLIaaRtahxS0otVUW6NDxToItWEAQ/9qtPWWkYK1ia3XbOOj86EWt/JJ525X/0OLUarPxLjfgjTU1RGnYn5tWQcrtFRN2fqxsYzbkMRtUzIqdidCwty0RqIh2IVGGSGBAFxTwM3wQBKdzwRBV4MHCKSqzkxyAtYsHYJTyIfww2NZAWys5kMfOKvCITKr6WNhG/zB0SEEazfmSW0fsFyKpExfkzTfjcjtS1G2ek9cr9zjVKHBVmJxStGHIpieFI4RA5NyNZgfnYChkYa0gjJ8qDywK5u+An13QvugPH2SEpv9R+bI+Gy1Uu8k3WGWogGQgXGMEnguePYjSm7LlYKhGuz1WYOScDKgmtWqsecJKDvlufGOZGVR+sSsL17kweaRYuxya9nBVmI6BYEnw3NJYCyrLPyFPiFCsyV/c8uXTKlMnW4GoP47q8afoDRpJZ7r+Cgc4Spn3NHht0uefrfEqcfvazD4iOhlnZNk4vAckUOIQGTGG2r5VkhpuNRF0qAVKu3ctyOHhulBF9NRMo0ZthXxo5/FoFvTwMi24lolUCGvkXKSnFVRcCs3gWiHKoP3wpACKevc9yYw4/T456adB2LG+Cnpi2tp2gjPXw2Hs8TokgzK6hESwkN4TsE5COKYIugVVYZXpDimCUX9cf6aqXTu7igBzI9F8AcgWSjgy5fAMSOpkCi51ai/R8ER/wK71EYC0xaU9Md5ma4JPbvkFwTDyDhmCWSL+kipRDpUT1O8hQQMayKNW3UYt5KaMpu+hb49hRk/3zUY/gmeVQKXjLRapEP3SYJbUnCJ57tXHXavsMag3zwneKE60WmUYDh6XLIEMhiaktufLBL/pmBwLndMXbWoqkOGtGNDWTl789nIDfWSXlYJhp3GVksykG8umqXkTkITsJnlS6KtTMWqDsVS5YZFlHZNN5nGOTNAlrH5CJJcEmZWw1IyMsypxJyC04uuV3VYr0IPOPofz9kDzDZ4lWD4+9g3CSSRArIbmpLR7swsF5Y/2S5EB3FyqDrkQvTGhiJzVtyZAq8RDD8cfUsy3zy5LUWHp+c9tHgD2unR1lxyYp0cWIx1bJhzOha729ZobsqvOv11wPBXcVeSzPDGYdIhunjg67Z4yZ20qJ1u2mG1KXeQ1sxL5n1Ock4NBkQWc9Ii38oflvNGwHCYeHkJxOAKHpqS3dqnQsCVK7YPZl0OSss4dLNHzdYQdWsgN+bnTrCBqk28mTaVrHQp8wbB8NA4HylGMZuSF6XCCgmYPrKbp6Q7BQfvALW2Tcb4+zK2LCcElKLxpga6ecVPSBkgneA9YPQpgQ5YPCVTNnRGFq8uiu7g39FaM+57K9xcZkoV1iu5QioexbGh6mJNetpSf96WcI6tcefgmfcXBWd2A0jHW7RUwk7LVov054ToVJfSheDEGAcMi0cHCYQhJlzjDiFPuyJg9H2jUecg5OA/P7jya+OibDYLYCjMkkBJS8bizGbgKxEhPW3Jb6KzdhPyGRu2GG0Fo5wpAOF+4SF3TwZiaBRN+SP2Wy8YXg7bKYH/RcliBQpJF2z5qzSsSAricty7a2G6h5Gj8CiocZHmARVEeDxtZx19pzYLq9yKbFB9tWPSsclH7l5jsSKVLg9OgDFtYbXqsmEueyV3UopC/Hj8Lwl8foxEh+D4ht/D4k2WumMyXQ58V6+99sNBOesEoHzEHMLtbOZ21zQbm4WzsbVwxDXpKOihkyvWRJNVun3xOjS7MsLi0j/MrIMFy7o4JRgJn18Cj4V7p+SSxuq5vcXbKXmrwS6Hvms13tmyEOgZ2AhEiHpQnraOtYD3zYahoIIaIBxv48Jh0U6VriB+Wk2CFHcn6aZ7mPJ373gsCfgNPVwgHfzja27k9gRcP8hJOs7G1lhBrNkmaMJxFLSIoEVQ8RdAVVQWhZy8mJwkNax0ubBPTZqkH0z+Jy4Q9yMBn4GPOnmDDl+Lb9TiFU/JFvuOrOOo1eLiTVIzCLMOFFbeMo1UemYLT1uPH61g7fmrZRnPJsWt3FIxFa904fh0NE2yE3KvuHY4HIQERkWDok6HX8ALs3gfSX0uqDtQzahwAntyZgOFEylwobbhGGRvZ2BGB7Fq0tOWGwq54Gxt1GWpPMWkbdzWSXnHPI63LSgqc0sR9JFKF55nqkmXQmeXvqx9PIwqyS3dELLGRbygEY8jfiTgPm78ONDGrFoVR60wcmgvDgu4oe+cpLWpqyJ2IhFYSfV42lZrTppwjhXH01rySz5gxqI65nO8nTnH29zihyIoXVRepSZhSgkm6+PoXBkGkoAdQOixqNDBAQ553PHB4rVmrEgDutBxKTmCbJz1lFepGoqodEvnlhBSp/lXkuZHxuLfNTX/wfJNSiGgvQQAnQ724TlP3eJdPB3wmb6iZe26151WNb/YA1280h0Lx0IIKG2+e2j5O0dTKOdI8pvenOvtXspKz0Wlp0Vlj3soKu/YpKxdWZO82iivNcpqDfL6dtTL63Oum9frZPVaWWM+F1gjbVZPiUN4xiopcf+VE6Ji2jq18ml7t2+obNIuk3TLxJ2XO4PuXKdU3F18ibhXwvV28ICLRqdXXcj1H/rCLzx/RB7m629mHkvltuTp5zRUDkPlMHR2TXdjmP7/flbFZNFsZs1c6wNk1Nz57nQGxadTQldKSKvFtJJPLYWX/ycppZhcSluUTEojj5xYKIm5lIjLXXI5AVcSMCWeUOMzJS5T41D1CGMxLSbTYlJtytGpHpUZUaixnMjEiETNiMR0puZoztgIj81w2ApL7NUNg+zQyP4R8/1YjsjpIwR0giEQDII/u1MEIDrIEyOln7ZNVv4e5hkHcWJEpHz7j/Od/PRJ4vwk/u730+K3LtckvzHQmYcl4GaO0TmAHn3kEUB7AD+jHcDLcAsG7uZ4YFh67sMRnzUBvwFynJwK7WTp3HJUPNA7j6XOTxAWzkCXaRruUXDjDaR4p7dr63aO3c2Qu/nA/Qx/NA8zbD/D5+Bpivp1+IUOf8jzH/Tyh7z9QG+/0Psv9P4DfX5Hvr4j31+hn69wLfx+Rf4/wzEDfgQBP8KAn2Hgj2BqQSd+0I8g2HsQfBKEmPiOEz/k2D+NLt68LsZemFc3zJsX9s11evXCj9zRnF9c55Eb8QVEegGRn53ILyDKsxN16EQbguhDJ/oQxHxyYg6d2E927Ec7zqMd99GO92DFf7ASPFgJH6wu760NTHxnJrk1k94aSe/MZLdG8lujTZtU10aqGyPNtZ72Sk97rXd1rae70tMPtAwDPeNAyzjQXfqay0DL3FNvOEtPzdpVs3WVbrpKtx2l246ao6PMP1dLzt2Sc7flPG05b1PK15Tyt6T8TblAUy50Ka2oyIU4ZNELsdiFWPxcKHEulDzjS56Lpc+E0qeC6wnveiaUOeUdwBXfNAE/PeDzHSAV2NlRuZUo0KV/6cCP+zJV94BBWwm0RfVDtkGdusSGdbpRnW6yRzXZpXrYIZvuUT3ukDZLz8d8wmOJHyn4MKFJ7NXCc+wBKL0+PE5/m+RUifJU85CV5CHtUWeftpGR7/mUb5SA73v1Jb8uNIl93CscD16XPonP3pXpWdWOWEmGX+L6UeOAoYP/vxmfCgH7ZSRX5AtNYp+XkQv70h2QHxSc69Tnh7JUqcHhziTQCZUbLB0C/84J2A+3YepluSs0iX3eYEG8BEfoyYvVhmSp/DEH9z6WgAcfoXyDo0PQnzt+DwL2a79woUns89r3xfGsWLoj8l3CM11/tyxHZU542AMkAU8AwvWUp4Pj9z1/HQKed9WdBlNoErvfVR4c/4rrEKFbgMflqPQZD08gksDVoOSZQIfQn2v+UwQ8L7hrZlVoErtfcEzekkP0927WLcdPcu1w8KEkiw1hSDqEe9/yGRFw3IrOQ0g+dWjG8WSkrBgw4fhC4vKD6ySHb0UITmQh0B2Sn0kvyXHjIeElCCXgPQyQvynTIcLkgd+MgOMq7dflWZlxm8WfDZyDHj+8P77ckBy+Sk1xVMeI3ZtMfPZuDCnQlHD3Eth3/Bw6RH575KnQcty/uc9yHVrZ6prRsQ0MuCAn1GyYBYY0oLkclKTWSQ7fv5Q5oA7FB/K0ZEkWlqs/6OKA6RDt7Zmvm4Lj0irOmquF8UT2ecwJyeFLuz4+fcdYdFYxJGdHkeR59v0gS0+lQ/znd5xXLyk4brpnuGegMOIz6pw4nIGCNT2j6o1hr2AzFXE19IOhoe4otU7sLOyXhQXrs7XL3kZAFUe0lSEdYmA7wNo63hhlH00a3Q5XQGtUD52halQJnSqtkxy+6QH5VzpGGanFkNtCAOhJIBiyMSgdUtx/4cxyQct5PebusavssNUlhe+aO84L+9eZD1G2dJz/pdVA7cYt1/LYaIoaIXTGD9Nn1A3fIfw4acI61MCriICi01CLtUhNC/StRay3zElAMWANkBzX9ZgCL88xAp1BDHk2BEZAAiGRhQ506Pr6hZdMy3mn5s7l2qxTxeXYHpZqh60Ws1E1Pj/C2giiRrhSmLePrxikaZA+mylDM+XHiSgd7LZpa5+LugID22cw0wGE1VlnJn6SHXXdKaXbBg8GjHe2FSGQJYGw2MAnoEOOXowTsBkJ50W05eyawT9z+KeOCtb0j15W/YbhrG0oon8DMYTllR/rUHXWq0+bJs1ayo8TUTr4x5IBoK/VEuuBfEFNhDn+KJj1AtAhysY5RTA2OQCEIpYEnImB6dChUCvFN0PCeXttAAFSm/FOmgWAN1sHQo9hWYC8MjNG+HESUsc6O8zoVQBgCYIO6a8OfRRLlStehTxRx5j1OceQNNcGwhJTApG5jg2kg+tZgUOTMQnnlff8YhhSs5pjU4UUAg6sLxQuMsOozlpZnHSIjl5N6fChtCh8+cRvSaqQ/GRIO1Y8/3xEjpF26BiS4tZAeGZIMiXpJ0OHKo0abyEJ1z1hk9psaEPwiQ2hhYAqPzPHxjYZUbONf7YX/+xWSwXpUGY8cHbVWj46qrBfE0NgTb9u/LN3T8tQvPHzqYFRLuOrYJclWX+TB02H+vtt/nskXJeLTYbmgoXa9jYzCbfwoemlZzVULoZp3vLj89Os8dbXQVhLXPBN+XFiA4bW0TJ281St7BvyDUSEu+YaBbRAhXXEEbJaB3+AG2PGTWkq3i65XKl3CrYo2F5iDIn15CCRECSQTjOI8gLoYPMQnPP4kmcKrhvJ04sZSKDCpgaHiDxUzWxIV17zM0TZHdhRCkLkBUJxYyA+iI7TpnKD+jBDNa2jZdaCUm4jT5ziH551hA6K/0h1KwIOCdDPucM/ieqMCExbUDqOheAeUfJrS62/d7NyfdjLNhoyWkqSm/D/pYTwMb/ihamT6xqzTk4uexqrcY0pv9qKoUj+ud2Zl2H6SJuX78iR49hDIdeSQPd5E4HfA0IE+p3zhlJw3X3eC0OQ5PP4S3dIgQDomMBvllrmbndDZfThcTrz/t7NypG/zxBV8qoEGi8L8PEDCfFQ/M1JuC5MEVjP4jUuTMWbueS7XZXh9khWsvzX9vLoaZ2XwMSrI3iYYhslO7Z/NxquW1ZdJChNGoBJFw8o9eNdbrPIUztMppYQkhyYdnA6xH1+yx+dhOtqVhmegLJTvCPj4JJ/RL4v9eo03HpIohGPrXbI0CHt7Q9+TBKu+1xlSJ6mr3jVcjSJ969vyG2RrOLHv8T1S8LeR9gJOuTqJjgOm9JwXwKqwhAokqF4PjlFiYuzu63kV8WOlcGjjyThLQhQsCnRofR5nlvScN8cqkItVAwE/VDJVlon47aWnxW3DX5VvKlE96GSvSPToeYhQcJ9Em2fHl3Eku153TTGi5P4EATWvE3pDWJGtx1FonX+50hsHAAhH+jJv+BnJuG+o0Qs0Z53VM38rBJXT2btvFnH78jX48IRW5KIxDQkuTUJEfB3zhtKw32xqQiFUGtHixD0M8+XxHsvWmyflcf2sWM6iEQ1SSQSPA6aEOEnO/5pBNgppacipEehIOgHZfbSStvK9nI0RSSQkiS6NjTCvbqEiD98z6shgDcDovbCVSBKZvh6e+QrjZC3HARBP12DS13IqaEz8NhenoZHBs1IomDaQWtCpL/5yWnEnIb73o0zqp/wMFkArd+7uXLt0hZy+llu+dhyGthzSVQtqjgUQuRtJzgWmxJxX9ZxZ5gTZ+f4A1i/rMvi/HQwMibKFQ1JjG2dhccpIkSZ0wKHwiMi7hv+jIEsiUHoh/89wGFv0eMqJ9G4S6DJLkmHOgcEL4uIcS2IP7KH7owcWTZVbbhZbZkJ55kNmTepDo+blhn1VDaLBaCNa0E9XDQczheTqBJCktpiJELeOPhDXiYN4y6RJ5MaWr5gD/fhzGO46dazFk8itM/mJpLlZJCDWidXJOXrLlE3z0gHQ4M6jVGENNwDjO5PeEKE+LrjKtGOiHEByYNF1lWIX+uQA4vXcLOGAa/QPjEbkNWZ5XqILkn5uoAUxjuHQ8UGBzuAJTIqhiRE7NFbzquXRIxbS57M3pgZO4QFGW5ubK3QPmYbGfCtgve6tQTk/OFQsCnBcwglW2inB0yIjNcvnILPSJjd7eMPMOrkxSJuISrgPA34oQifTQ/Vdbxnl0l3D8I4BdUOB5eBhkDIlUgEoiPltUGIYhdpIsbR6aN1h8dfNv3MD9Y2s6HDK0iwyXRCtdNZjF/3o4TdFAzj6DRLOAyLKFSVSHLNI8bQJkStQ4K9wQsqxqUqH4DItBbNloabntmtkNkaeIDC9rpUNcsPCYd3QhrNSKRw3EI/hLD5nE+4qdtTMW5iccdzCQ9rudU8hptGRpfVjhHCZ1Mzcy0ls4L2uonF5AXocAjyHqBYQkikySKHVVEi/GTLrmalYOP65tk925CfrNEBrY3PcBMuEydsOmct5bOpGZrZrLC9rm+3zkcGCM+/ED0vMkKigMZ7FCESP33imamBcedb2+aM4XXny4FzhMPqo62Qip2PUeGYI0T23j+OR6dkjItivnPG8LooVsvvB4dyJxw6SWYFmBEhuj8tUjEOnp+xNjv+1wWfBmjvQIyD5yfAIX9LwptKJihyMCghmuydUjFOq1/PfT8DsCtLHoYJpOVYCI7rhEPGvoZg0JFMdKYi4b1JyQO/O/9aa8K4x26Yl6DDIeG9JeG4x6Y3DJxHgBLRRwe+dWvCuPxuiPcIiM+I9JqWjGvWQIDPgBLpb37wT6Bi3Jif9TMErxtzJ1iNIwMi0EeA0llTMuPanMB+iihR6iLHD0LGuGZ/5s6uoNMAFOOa/aVcEiD6xVg3WSFZbVHrkCFEDzunZIxj+zd03gv+626+NijGsf1z4FB3n4bb+UBIxx5AlDoTKHnTxeeKj4iMcaH/nI19AadLNgTFuNDvma9Sh0OZUwEeAJKQr8BD9o5CiaSPn/mZCJm3gESlML1vATVxR7+NAZG3KcOHH0goFLbxCShRoJWkY36dewV8kJhBaCNgzLdzKECkH+gIjoGE4nMJ90SJ2gcEL5yQed8oZHxbr5eM7/vGxnkygIj/YCOmUCXUTdSH48SnhC3g7y3XiHZ0zEvKFyyfC9dXH9DEX1Qdfz2vn9GnRowSdpcMGPRHDXlMOiCcXl24GEpCtZdleP+JSBHn5S0viJB5sylQfAV38Ky/YvbfkvB9s+mOZPPuIHG0qLkoCwkDto4S3fT/8eoQMq9DP68Q8YWcgfsqM7pfb1KC1/YNIHSAVTkzQPSHdkJK2wfXE54SFY8rPDtK5h2qAH31DrQhjV8sEd93qDCcKiBWiflJKgB0kaWvkfKu9/kVPzol8+JVYHbX3FdEEr4vXo/Ob64DYlB8NEnF4jI+LikijfdcRK8ombe1gvLVp7bT6CtBEr5va+/MZUMi9pONeEKSVO64R8wHZrz+n7vkN6TMK14B+fO21ZHJ9Fee9eEt7OPY2MJWt7ov3xtk84o3E44MidbIn3QkNbZlBv2SosJxif2gIS3zXiiQlxbturT+sqM6NzG6n7jjmsOtzb22cJv72Tsv73B0dS5sdV9uOe+FgMwjY1hIeJgijHOVFpLWHlWOOFI2f9MpPxEp8zIplGu1diKctbv3l6+uswdPUl1Ynb/oTh3OHY7v8KcX1H9oHY6rCEfp70YXjHnOvGAdECNiDCGtFSBfUybFGXIWuSBm3kDFcsIKm/LlqSZuiAbxI6rtn7DpfDjfNnvrjhEyofhxM1EAmIfT4DoopQa9+77EwmADL06KfO0kvwklyx5POA8m17E5M5uz/SFks4WVF6WZawn5QzNXpot+UJ7m9apN8vNCIuWNgTDElFhqxSLCCJCiYb1LyzwGJwZT4tmhMdVwdpgNJeL6Z33ojdIH3pvAzplFq35N0szT9zG4XEgMj9SSkViFvAbf3yEpbGHft3x4hEjTY16QRZMdhbPVEMmm6bs6m35i1n/w2dGi6dm8e5+dT1CHhJ+vECcqJA6oX6dJkf7mJyfmM3LmrVo8J37ijmvJ561aLJpP7wN37ZBoWKfRmXcmpGYPIEqeCaQod1ri2ZEzr+IAxTLnVTx94MFr1x68+cJ8Ocnpz0Oi9KkADz6W3KvApa/R8q6f6ZRrRztq5v0dIJY77+/fndD+41tcu/YWN5+SB++j/WfokMjaU7FkycXgCuI8WM1QcoWY2eSCmnnpB4hlz0v/2f/4YPSt/xjvb9XLwUExSzMsQL5ccQ+taZGnm2RnMtE866bg7M0Hrz377hg34z8tVw6K00C30anklga7GaZF/f0O800Ts64XntyP8PTLGDlkXS/ceOCcPfgfY7vVfweKGaLpIickrz0qNjhatq2lZh1XdMhGC3DdSSR2vUzfZDgkT7n5oD34QAxbRgrk7HVIjISBhfQeETnbCi2y9f9yNHJNzLrIiLePFOC6yIhwuYbDkt797CcpcexqnO2iEb8SKNYTo5qBEzWQ5M6iRd39FvNjq+p1+9Hjauzwdftx4+Y5uztOq2+VeQD/r4Ii6a0BJ2yYgUtEI+yr1xxKboL3v6ntdWUiiwEhffyBs3HBm2Bz2+ZqOig6ImtEmsFew+MUE6Pb/j/eMYOYkoIYoa17lkSvVyhJiDFkkRt3Xzt3Mx48LJ8vKHrcId3NMIYRZmgWuGha1N9v07PObQ421rxzoa3LmQgPKKMxVo1FS2N45nJBUepMQCdhDoEgQMaBRsyba+fjNQxyHtPjaltQnoBkNoutbhcu14+0EC5bB0W6Kw1BEDCLxEpA/8TI2f1H0EqLnQkVoJbWNdAL77YHb+T4/XXuztsJWEQYuRjaLKqWVXj/iYjRcK/DfM1abt0d3Xz24znc9LqYtwcLz38INYuyMEtuwBkqNzhitihvB14NPevC6SPhXhdOe6vDrnXhtIoJGLJM+ha52/SLcNk6KEaEWzAQ5uEr8NGSGDl7Cd51gpY9o2ndUkFdtfPC7Fq3VH/GsIwMP/Vb5OaLM+PiYJGtq+KyzCQGV7AAYjSq9zz6ryhap16jHBvVAO/2dXrUVJGqHWtkcGzyblzfzZx8cZ88uz3DYgGIITQzKZ4Q+H3N0HLJBjOjad2HNQDwUQfsMRvzdR8GzIkceI86LMY0Xc+YmRoFtfcZYhRupjgIuiRqXaJ9HrTbm7H1MFNBzNclGjQn2gRk3jws+kNnYCDM5cnwk6l5E+B3xmXtlqh185YGpNvbqRbzdfMGzYmsuXVrmg6L/C0JV2M24YiBLu9NaqS9/c7x2IyqBdBYLIT+wz82t92HHShWScuh8abdnc3PSV45wBgCf9ZsunWnaE2N6kd1qtbx39tTy2/u/BUQK8x8fevusM5uHzpS+rrju/tJSvwfs/c5/ssXGB2xGLMZ3/YEGLy5jZQbd50tVetiMDCM62JwYeGsVZOeap0/cce1m1u067Jt+8/qUPK6GHzh44+fzdLnzDCgDosjdusNMO7ViTBb9gChyKVEjfztJIcgY7KWQWPgvwLjNpuwZFbNX6o7Gt3aNrcJi6v5K4EVuBAab167Ozufg0Zvr2aAUfJcQCdhPsGwgzbUsL0uVzRbshZCY8tv7hQLai3p7hbturTyx5E6N7e2TazObF1B5mcoMG+RhZUCc6u9SNfBKYRrRmk0i9BvHjlS3n/lmRC27i2fBcoaaM1swvp9e0fhNtdGQ4uUuggaX/j4uUzdzcbKO4TGbDC0GTVYFeF+hslRpVFl+/DVMglbl51BID18W50uT5JYqf+9Cmrun3mi7cNQaO6+ltkZ73UXxSOARr84fWHGfii6O+XJ2ZwnD4Stw9NlE7pCBusI516Y56thsP2XzfrdmRoKzY1rD2T2rPJuTgdGiXMB7gEW5hQMOUh9Y5AjTyfBh0rauladJpyHHfCkmFMNZg8fB/D4JUqZecq5xzNY6hL5eaExRzhiy6wyWxIdyWHbAq5gN+p13cU2HaP+AIYy88C1NPxzTBtHAOrQCDrxMV2zugagzgFDjjS33zgWm6rPdYE7ttSs3KFiNG0o9Mqu3Qx+koZ5QqPmAYNRJlfFhFnzGkTI0VHIcXy0rQPhuwd63fqO0vrMWflQ6laPh23iCpiLhkZLeAtDYV6xmYwYQ4eedxMMP9C2TpH/zCqoAHDXVfFHPponP/INx1DsS1AzzKS5eh0aUV4A4nLZzH4LvPxCepQ/rTAvTNWu++WYzSj25dw5m6on6/PDFDhmiKplTZg5O4BR+kygZ4v6dqBunVfPhOgYQV+X0s2ENBSbgNtuTfVVQOM1MAthbsGxg5Q3Oj2KX2bIW4fcfTuE75xiQ4i7hnLdZEfo20Fsy/enb5u9NZSbkJ69FLVJ7uXzRXCkuDHwqGa3GLSmh62LzzVvo0FbD5gkxIC5rr+Tghibap/1EcNQ8ktIz2rPvG0dHMHeAyzG7B4D+DP0yNOJczA8onDdmafXL2ME9bozbzqmoeTEbMaqU+Luv5kER+19Gp15Z5OqEsLsvSlui6A3Af7mBK4z+LXF20fSk0O3LtotN7Ph7PoVLYDVB5QHxtehgyN7R8EjCvOLLRREfgEEcbl+oXAd3F/uN4G3buf/oM2HaQsZ1VB0ooS1ug7upwuPn4HYTJKBamUF/RKkye6pVzDiKmajWteVfoCwSm/FWP2W28Tk5UwIHhuJSmVVyKBOKH4uELT9Qo5Br1Xr6x4gakhD4QLEsNhtJAgvTwfH5WMZQg5CYBtDEGSbPflD3g+V+ro8CBA2iqH0zDuGxf7ALcHFycCjDYIiIAvdRH0E/AwJYkt995VvRqW+bhyuxWLnKwA+YYXcqa9HOjyCT3xkspQ8XncbQNUjliB/zLM/4qun8mUp8xHgPK8pEnWW7BvWxGZiHFioDYCmPS6yTt7M9uDRHzCxTVLIortvfqR+yTmkJqGvY4/LhuV5t5H1ROy8C8WIYkAQj31VLpTL0eHREnMQ8pBAipgNRRrv9bx5Y/7G6vN1IdJ0zGYMEDRTv+l5VhIbCm4aIKMhvpRkoodFDu7mgwugaHt2fhNqX7coe1C4NKR43qLMO8a8DRgECGs0ybXr8KhXp2F6lWDIpO+HHB2FIj3s9n1NJ1xar8h9Xb1Uo2DdMulSPK9eAmQaM4oBRWJ0XQk5Th/8pwBpBa9+KOQigZA+CO9SMqrMYfGY4Nd9TTIWTaHP+5qumdXzJJrHP7G7BVUxogYwwJDpT9eaPBgdIE4jF4mEIBtL69VFlxJ0jNrrpvh1ydMlG1Lg85Kny1YYmGgJJdvZ2o/6Y4b1aDoVHFoRGf6QYKPVXqQDpM4+DQwjZJPXMMTZkiTz1W+CX4dGvjdClHoDCnveDM0mdaLifdv7h/GozTRt2gISP1cJv+dGd7oQydxTMU8hH+eHD9s8ek7r9ltpfl0ntezWX0U9r5NaejsP8vM6qYqfIuDvFTrUIbJEJFWCjIx7nQJejyTfmf2jywnETwa9rU1xzzso09NSBloVPNuv/XHiLURqHTLAeDfHMiJ8BAEy9TWa3oT+WJuW1BvFPfaVDJyIEu4rd7NRl/c1rWnQx0hEA7+SxzYATk3cPKKTFURcBhp2Q8hJCsVhGjQpcZlhPhWD5lLb+8UT0bTlO1o7jUybiC7+WT/RADmLYk5wcTZtiEwD+yYrE6xSQPVDhqYt9ssbfhGD6jbdy/NaEm0VIopzpliDHEe8quIayiSihmvbtAF03oTb97sTGiIjAROoUrIifEEfGQYaTaodNbaev4ZBd1soLxARFbCnLOU0DHd5ZrmnAogoYRdV3hYMsBOC/Z0aSOaEHRfyklazODOa2FLff2cnPDZI7+6biLePJFO23l642i2TIYexwSwkvUa2TqaEbWKUBuTJiZdrGhF9gDiOfaSRrMxMskp05p1hRKI2f9MZ51NLM6Ng1OB6dlHtsIVtwxBJppT26LU4csByh1DLo5dGpoyFC5qWAXu2HQvBtcan6SBZCNzMBxOrkjIjjgxprnSi5OjF2Tcafh/zo2AoI9MNFZGIKPkknEynm0Ea3otCqcf5/BW9F4ZpBH2C5MmU1owVdurNgHwZ4GfJr8SZwaQP3KyQm4yGxvUQxeb0vuV0Ym4oQyPefjGRyCyBx51UF99Vi1rseu2fb/hc1ltshrsfd2AyS6Ritj9iQwh5K561DpMQEx/pNC07k63F26L8MUeUUuc55vpuLx8EDPp0dsmUyisMFMc0QebZWjvddPtgNulOIfrQgnTHZHqrwSeZbLFfhJ8BXegc8Jn+4++hGj9FVHySh7WmIEOLXsO009oamSeO6XygFU46u+kboojO/MYeQ1N8MuCo0mBxaZOqJWRHBAhdHAtVb+I9vzXdBrnCtIU0l7HjJNrKAyf7M/DKd7yMNLdgiCU+uQodJh1M880jP1ksiTGpUuOIcABD/tiGEnVI4WhAO73kTlol33xdyZRJRU52pw0X/5ERIl48XXzECB9ZfMM7nWyR0eq6+ZJ9z+2NDQFlrzyjXZrP0AY4An2EyGAZGRLtTeMHTlRZBr95iptjaMIOVmumwK9kMUMb8BxLvr2Qo5DEQoIHiyq2reWkfK4NdYzVOXsdKHNGaGLKUrm8AfsZbrpHUaXCcYm5jNloQU0xh7WY88WevFgFxuAvhkFkSTxZ73g2IyXjsR8Uj7Wg3XA03XIGUYCRqa+axrtTnpIpHo6TgCy2EN8rTs/n2s9b8QfqFhrq790sMFojpeZkanL/sXbo/oQnS8mLHHM1u9V6+qGGzGdnya3DYs1Nj5Zrjsgi7MG2pI+fOCydaD2J0Arvxcq88WQOjHiPNo5etlzzJmEPtvW40w/wN+ds8k7baYJbv66fhaUyUoNF013y7lAmb8qWcAARYQ+2FWwdm3Z30nJ05neyOmFx0PRCwDMIhXwlkQI60sX2T/lRtJwt8+6sz5gpNHtcJVaijE26lmiHi6ZL3YOOr9mEs8qFdlM+x+VTvsUCPMXay57w+CS3JWMiOHJ6x4NpGV8xrmo2Wk1GzKF0a9I+GVC8EFYq5KxkRsDjFB8tYVuSx08cgoy1Gr+8Fd0MSMWcHP4gSqSErAlPAUQ3HYUwNseve07Ob7SZwjmQZzOJ0vV3y5CYv2m4nORtSuhImTLnReZieqXFFMac3JOEOZCKOS0RCbkocxP7T14aLpqyzeXqhX2gi56ivfYSIz3Lg+KAVCyjYoMDzl7mRFDoYJaUsUUeHzgGvdZegnA6uifKyByWPqcEDoGQu2JJi7YH22odNpfHs9Va5sdx+MFfNAPUw8jfFsM1Y2kPpmZ8Jria3Wkr42SL8ZQA6mHkLD3V9Gj5SyZ5BJ8EpLElevrAochYW6mVt6KbAeph5OVi3yyAaI/CFyJtW7DvO04sbrSUafCJ6J7LKjQc8jcl2HlIWIIoTMVotOn+tOghPOec8k47SYn/wCfYNIH8cAg99hGdKRbhfC8NZU552rYcvRjzGWklIZhT1G3QUIlgKHUuoN2EqpRFEP8LB00bW7KHzzy7nt1eG3mSMFyRbgVEe11FGzroAlvCMtRelIFqRyxxW4TJA5+SNrIIjmrj9FKDocoRB9RblCyE8Ac9JL6ziFP7gPA7nfJOayG5cqt96mRMALtkonsL1yQsxfJhP0WXSNxW/DLDXFAttY/gzGenW4CpVPslzgMlEsJiCK9BgKsgjs3l+jdvffVop3X48sfXo1sAqhRuB0xTWI4spo9z632IGUnFYHg0bvekbXyKDw6uW4CqFO4mYyMsiNg+nC15W+iPFa+OtuGTm9FNILtkS9j7UFiSvjE18mysV2/MXYlbLaNajhUFIzABbcug7wESC9GiCLcAI39LIm8r2D5hXpB20R3JZn52XddB27LwpQg7DwvLEoVqCPPm9T7UjAwXlzBrraI3ksdmo7YF25bhXl1EppqFGW910hbPTN+W5vYbewz/qxLtNMoh0luCs5ynrgP3kYvGYOPcpC2M+F+m6YGnr3jP79gvumzi9lpEJWE4yZ9d3XazhmKnqzlLMYj6PxH4kUDMqF2WgUoNlsAtwnjPocl4PMmz9nDX/jl7XdeB+8hCgD1vUT8U+I7A1wS+LxC3vwJCF7MkUMN6d/ocg021Bz8czxouV9eh+0jcRxsBoNuCj/+uwDcEviqwtfUDgbhRLmsA+0jgtrE+5hNOwWfa4yB/cQTgCHQ7BALiI3cCVMjrLfj4ra04Ir4S4t9bBLKVvMgyZ5YLbaFrgsWcrW4rSFo8EevJRiAEWvTxwI8FYkelogZUPmIp3D4NcwF1ryUUyJ70HQ+qfYLLnfBA9bLaQo+PLyIwcvF9KGS7K+aieqUd9EJ2mSPrOnzv3zGCQiB6n3VyyysO40etogSUO+FI3FLdf2UubdZaQc5sd+eH0obh/VMG6hUF0Tu791sCmqeffe3Y3YJDB0dKIttbMXdvt9qAd9ln3ou9cyAOxKWjPAMEx3YLfKW94dcFBKfPOPtNga1nflvgewL3xolGyzxM01lBYl0+vufOg1fbpgX0TfYXwNF1O50MDGVw1xyX1mJjGvvSzDMPo/SMx+57sUdfOkYPEwrbiDgCNLL9U/YWXnwd9S+PfO2fVZQSgfg34shFKGyJFuveR5H7ROPI2UdfLDYzel7ngGsncosxes1+4MVNqX33Gzcp8A3q9soKho+XPBPgZj5o8bshegx4aR3bj50++obxuDkhA+FGLpFsG8oB0LBRtFf3BqLW6+N0dHs3it2bPIO/C0RnvcJiQ4KvtufcF3HW24R/39ZLx6HlfjyblNsZNs15MJGFf3/gHe0x2qt54abGX2X3a2pAvBY7F+Fmjr+iJF9v955uvWGAluiLGNwiUB0PSKWmu6dhPjYcCo+eQr17ii/lqyxItzdQtGUs7JuHtRcS9dgzwsrLGJycO+HquB3mTuXWoN5x/L7nL1XtJ8OlxfuesQ5jCl1KcAOwmc+DeO/pfc/JfQfhhVLJdnzvyVO7cHXurqfG+y5aB9I0MIAwd98VeLF7c8zuuwED/Gkyt298lVyfKr+e+62PrxLK07b1xLHIYBwY3vDFcv1gMbmKIO8+mWwFfRXHTQoq/PGvPPzzVxWkQ6kjhhIy6Owzc63bnYebG85VOn/RfCtWo747oWX0nA9POV+Pa4VSS4whZFHOD4F1KUWMSSj9BnkBC1adbmT2CifueQF8gzqYetwhff5Ecrlz0Dd8eq5194WroHTbHXPO6nL7j8KRx80szehM9t3pcGoDTwES8vCcF8s13UZ92M1xzQOG0i0685upyu3dbrucAnN0HU4LAfLYnkz8WOA058L9QB8LoJS+F+YC1eT2ZmweSpACmfeiA+qOsSghE/c+mnNqFGXg2kndMmQOqha3t9cUmDPUAfVtgDplSS7e8L7cK3ciBk6DVHpk5sLVHh8x3dZj8won4Mg6pDoiPDWEXDz9sdyzVcfS2xfrQuTBYZJgVbVXwWbTIa0LeS1RbKgu049HlS+QaoXNmlwtIWTzyDic355UifD+C5vukrRu2Y6PE6KBOqoCOsOXEMSKGPM2zUfKcFqSPLM+v0OV+Oc6stUh1XSX8v4TIbnghFw89vRYiP/KmA6t9BGcCIdZv+rbJlNLwzGfiKj6w8bM1OJqCms1kHhhI9BBlezOxJMJ+bx97VhQwHWBisccsdtA/s9kz8sZo+p7aTqmufqtjTZDzLAeZ6z1zTn7gnVQfW1gGNn4rsBLx0R+IAgQ+RnYqK165mkZqi9RzWTqySAZxIjZ+lCbuXod2ER5dhAQAdn8eMPT58SExsvCanlnvWNxCFB4Xio1eCjSAPWbXIvhSRJUax/q/hn0ZYnAWhHQcFmQzfe8TuNjshSZaZgaufRXYvb5KYb6u1AMtyfFBj/FJ3N7f92m7Y7dm4RVawwgn28hx+nqObNAxoFG79bTl3Nfy/FQsi9DBV7IejEnXz44VhRM1FQNRdoNdeDHfUBl6qlw72G5fOk94/QZhzGiK83gHOocMPRuI0ho0WV/KrMFL8H9cTMjsGh+bNr9vZuF0uAbidSakckv9NKPxsz5+XhxwjaCS/Jnj9VlG5NyZavNAzmZhsoAUuI7E3MQ5qTsNE8fe85hvCiZtZod9pngrod5EaqxWXFPsgj2pPE6oRuC8cpKnwlA0aRt/j/20vc9+mJn7z2MXQpJbIR59Simn92YOIxKbPhiiDD8qmenW8/JnAGIForrksH//fHYG94bLRE/Jr49cgcw5kTyNpm2ztdYHTbNNCXmqJ43/C210ABKe23gsCZXxQRZZTAMTvSKbCRXEavBxgNPg21q5WXorOAzVZjm752w/CGvhabDlbhrnf0DXKvKay/6OGvlP5CibYsCDT7hRwABkDuFWowyY1nl2pmeMEJzn3AirO56NDA/5hP5BN0WJWYOnmdD+7GvsqQR54fOp6jOPmMjuq0wJ8Eg1daJlRhB2NPm0Fvr0iR0Rvc4RVi5IC6fvo87pppeeex+hdNTad0sKiw9/ozKdRuFThs60YYOfIaBoE7NsgLkbitkb38xHZW2/33hzOn8RdsPzTZr4ORuy+gMDGqVFfKImFyBj5+oUZ2ykd1gmP2qrr4fZuSXec26WWzbskTYNN6jNhkxhDKFWozAbhsnTDc9uSeJ+JcdVlu9Ey2fOdDA7WmlGHSfa5a4GkGh7tImUPhCkgBpN1PJW1ZRHVLWt8weXZi059+uv1uGzaxgWmkpJBaOmZg65fRQcfkgq6cukzfB/N9C2dvuAtgcF8JRQxCZPUBIemuSvg3g7trumPehiuqIWf8+mHf3Lbo9QmcO3I4iKW4M09xTUylP0gWeWRqE3YP8dTB3njfU0DhJ8MrfSbcrZWQO3HmuZwKQK+6RSThiG2dGO/0s9sLcZgqonKE7aWo3zHs5CztfwSuDG2rsIzhyBJ0ew85DeAMb8fXmWSy+FZe5Y6yerooZAZ3QzPs+O92+LDrzReuw6YANmUiVJJTo2tJA2RPORn3RmFPYq1qx1xSYo9ndKJDUAumwWQeYViUQqQXFQNqfImu0dhKbD5l9qpI/2es+mbMPa2fz+X7hi79m4nlWBPoIEJyAKdRitJpsLe4BICS+MyVF1gA9VcD8VoegR2rDkt+KeUavZNfHtt7rq/yz3uYXJp9hxQvhpQW1FUrawIoVYNtlFcxxA3Hb6sK2X4m5il3a9+eP1/wU29YbJKCf0o0DxRKCXOKHw9tP1J9NAert01giCwFzIhQIoR6cdk7Ms35jHf6MvpEYShCc9yDACUiOqoEibI1XY36TRakDi3oT5tb4tMx0EWR405IEoliDZam9aXluKUPL9cdc06FokfhVUBOzv+XqQkgfcAMGyyaZSGU4YLUVYju19v3uMD9bT0Vb9Kp4NuYyT00XgtVGC60fua8KfB5gK8luz42lmAVRA5ab0KLPnCAF1idy68uG+QRL0gWRpSAodEQLKG2VkozJ12IePIQXMhOaxqi5dWsac8IUWLyoLd4nc+vWtfPVRZEu7y3Ye1C0gG8GlH4AUDpJuIfK05LNhaZhCW+VV2VOlIHJKp6IzbhJ5lZ70XR1YSRfUwIKJJ0W8WWBrcMvCuzDI935TkCpdMJbOrxUKsEDfF2gdAkKz0OUUCrlXbU0CtPwXqPbFKTBxOWFzG2n4TpFa50XyvzUg9HFkf68/sIWu+G1aC6F6lapdKi2tF06dWXmCQg73N6/40J+//BONGdrO89u88RslIT+T2uPLQCY28XAvsiBSAWukDk2FNT+T3WBuEA8omgB7nsuZoET5CSCysr9O6jg9OROFOqRvLyskjZYFNsh/UC3KUo33dnPJ5sx1Q/Yd9kXpZhBmDdTzk3rIknXfQ2n/ly9W298vd65AxwiWFyecpSfRkL2t/dPDrcjEft5eUulOaD0qWBTlraX4bsxt5WGAxOhgX0mc0twsdNfjranCyV9ocUG+qM3Hn8pgBNqJImkbR+WDk+3Dk9hKTc771JQBDA1c6NoEnyWFysqM59SD0T7UPSW2BR1ivFQMvNyljcZXTBpjbcTLfg+ptNMJod3Trf3D7fvHO6fktTTvGP37QHECdsUpwl15eOFaU/8TXZZsA5ca4hL+N1uknnl052QLpqsJTwAOC3Rwu/DXY1v9uHWfjT3sHSptE1a8/CvkikBzNemQA29LUseMx/TFYjJFXSM05n5tnvwelIXT/oAXNOGaMH3T6is2/YAWwc5IG7/xIX0HfewWDXNv5RU8jDNBJYSdbTtnG0yc3tZtc+KLx4bK4uZ2zXbNA3hgngUuRBb6EG9+qLlx9uS0C1Klw5dggc4pUNfpehPPqb1xybXPmBsilTYpH4OmDkhCjRXt0jU3dxqmLn6Pj2+q4soNQ7ZVSE0NoVi9IimeeNQqIrOMw4/ZG4JwSbN6cJ4JCzwWFuCs8xxBGCeRetiyk+FtyAQyqHnde5YkOjetClWz3tzzOx3fgehNeF36N0WsF9mvrnn1UWVDYSdh8a6yioIkdd1gXWyKVcj6OTXo89g5g6ymnclgF3WoZjZ1w5HoAsr2boqTGs2WFGKI2Sgu1PBpmR5ezXTjtkGM/+/md0Y1e4zh1dj5oD70AWWjQPiSlkoTEEwgN+vsEGdkhtylqBAZz+frI6Zd/0P9uQe6bWu5s6MmX9zOfnqIkuDPfr34b8Ixem1MbxN6dp89NFhr5g5IpkcL6nfXg6/kAtl5tntcfO64PJOcPChUB61y/LASH5ryhI1Kzfj+147m/r1+eXysWm01S+ZOptSdnF71kWXNvgk01Ug4i8COTuyTQH7Y1OKNN6zqajk+pBumjr3V2A+bErZ3X1zuz1dfLlxmOarUJGKSlXYzXG5Y86miNXfb3/niOMHNuVMJtnkona0o8uO6n1aNiXq+ZarizAVG5z9FOHohEJ1TXijJruUTSHb5mz9v1vLpmaXmM8Oj6BPe3/zX1IYNiX7VzpOXZBpbZoUB6WyVS+NqEPHppzV3+8sMO7z29dlNh3q4qSeiBIvHbRJZmZfwSv/d7ows5aw9+AkqqRiEeWK+jSR5lq3KWpn8exh37dsaoozeWcSFiLgP/mvY02BTTnB2v+8LtI8EgYrkzWFgpXBMMA6yQyFQ32Sr52MP3x/YM39LWdcNt2ZmtFOyb7Z5/e3P/n7CJXLCw7+vOXqYk3mngpktIxQtGJxGSh8KdqUt2ufY8b/xvu77f5/lDZ+oV3mzT4ogQILwdftXfZrGsvG2ZQ4/KDsf3htr+CmAk3JEvbH2M53o8AuiIWV9mVJSFnMjV9gHH/yg/EhTlf2yJd2gtU2tGHFrHRc3vCGlhk/Bcy+2NavG7vLLFVdxNkJuxlGWGwKpSOuCX6+QpmsThiYG6DZ45czHf02bsuS64894qODjJpDsrIr8/XMHPPWc6jWB3vE31UeT6jJ6ILOLfr6jlps+aB5TDKxCz0YYwYpOkRBLASUXSqBtP0SaMvr9P1wGjYl73N6+yzWhU+ne2zjmsFmaXZiy+yhZPddDWX4c2fdhQVc5sSaZbMsYY+RS/ocXdw5YsexB89h2PufB+w3ydy/Azq2nYoQReSYKYVslcC0bDsJJmIcq8xZIsozsFSULG7hT3i/Dv8YJTYfxOmHbJZ60ior1+6J9k0NSAll8PwOqDmdm2ou17LSqofNUseR5fh+n1CnLvhcIF5h3KuTFoQRuL+PVmQR24cuokMUOcdMn5AtNHw+TQREhaz2pfBCNlXQQ/by2UKXPl7kH98ynhFbJC5S9O+zc7zZA8nuneTOPJ3wEv9Sx+HTmfnij6xan/4bs7z9M9p5/rXP8iF1NZAXQvtKeVWa41SUTmm9rRK5kQUoco6ZHiGk7M5WMiBuAuhgUw8VfQ89fDXVhU9nwbNv/ZrRUkxgK4mVFMfvv8KkWK1TvJGMYAVcX8pNhei77OexrwEG6wMN1sOFPxitsfRD1qNjWXrU8OFyKWhfecQM0VTK6ws4hW00XqH/8e+SreRZfWUfvPb87qFoXTUk3ZUOHLOQxCU0+9P4FZFjJgtJIERywQEHbFMdLa53T+PdezPV2c+nHfjVbcdsY0ttWDOGsv84z5LmEYfym7cUMHi0FLNdnK42kr2rACsXUjlFHYIAReyYKYQkDyIy04FZmYkgy/H2/cH9I+rpy7nuvJ0YzPKS/NU7/YBtna/NekvDjGfFWkJr17W4/WrsAdhKFLQcFVuM8+9WQVHjG7yvJbR5Fce/4mwp0YUgasDT/5XLG0yKEz2iUytXVy1ZJRCFakICHidMMTtEEau4sxVCUlyoKjhy0PkUHYfNmlWlBuv5D+FxhWROIBChdlm65FQEKGLHTCFEc5gUVyb1FfoYsz8rlgZ1ernwGfpCOofbZJK5VYJjWQGK2DFTCfFwUirtJwGT+Y978iEe0IrF6dWDJwClHz8JjN5ET42XeXcAI9rQsVqJ/gxgN0cNFgWhvETJhGiHF7JS2UGc+iMIJSayuz7w/a1SXqjZBV8qdF0bCkhxa1ihTAemASpW7NJoFrgPq5OUNwZMU/yp4CWVPNCHlckBAEMLRS++lID5WpW49DVgd4TCF5OrQCsrklYwLVQRxa9PIEdHsRqZP/DDhQooHDOBG7cSyduUgMMSqqD9BmZkFVLoUoRpXilUQiGQjWkOqag6//HRD1Pm9m/ThPu7b8zkpT4VPxdfDI8rZGW/BKdqZCAq2VJgBOB+hkueCUr6w+2Rn8Ytqk6lT4WVmqYISj0Q/kMP/bqe8MqjYvY+bpVAPepU2RP+vXBkQnYFgd2AEzH5Dn14+UMzVRzBwZrsk7Tb7f75IKb36362aum+h37bxFRPX6xKqnWrKbd7GIJ+dTsfYM2EuiB8BAE29/8ppG69XTGRcKOEFu663e6rktRc3W63mD/6XnhTIY2TEnQ65IFeSkPMrVJpy+elWUK0m6awzdwq+SULfXTkPQzg+ReWPBeV01WpTeeyUql+nzrRn6iBXoJlJix36hw0lZemgs0z5QREeSUrfXTkJ/ThYYqGVCSfft02+0SH5t7R65i9zpHZKYss0HR116jnNQz3MKrW9bymfgdu0w1r3WpqgeY/iU59GB43omo9L7dFatWt3sqpW/w+GP0aLX8GHYnp7nuNOedlOs8iVVu5UWa30vwzRY/+0+VdeWrE5eLrOJ07BeRRX0yyjwAfF89AxaBzPYymCsQoLxiBMs/04pUs9dFRQOgC+VuSEimaffBj7aJBmqtVV+Vxu2o1uwXW7n/XWLX5/dMsOespW0pZt3orTXfauVr/BrvAO3CbJ/pcrXxRVr77mt1K8880kmvEHDxcMUz1QkHelgzpfiHwGfMNpI9rkifCUYkEMco8049PstRHSMGwA9yCMjFZXll548HsHhvd46dDq3cty7vlXK2/sXYrbWDt3mvtjS0sbvY9e5crJrJTME5uelwhnROPgJOswG6amSP1UdL6A2erQGD9y5fdAvfo2VAQ7uxFGi6+zj0P7+0tXO0v0kOlV/2imO1R6ceVlq+z2FsUryzU7BBwzsOXXVauRNt7+HUKRRNkK+BrCyllb3Ko4MjMAqeCoA4LeEtFUqT2+aKfh/2NHoRvEa0ygItmRo3+GXMPHnaL6rus7HIh6BjSq30FzffTPoJm+900L2Vw584WUXdXhA6Kg+PWbZbxtjsu7mnSzhodZ36dey6H0NwLAWQ297IE/Thk2kl+0g00qfdkPy1tu9XUQC/9CC9NhTLPxFTaCkTqI6aZA20UTDOUIzdH8FRqNLmcLSzb7BQW2kj/PKtTd9xLDvTSS4CX5lZJm2cekuL9IJQ+ckooJWBYpXX5imn2qH2wmQdcWRQAy5fdkeOOGIUnpVA88MUV1pF7yAXNhrQoutB+OIbw7mMBMSQbWqghIr2hgbVUUhy/ClgAw+0oDGrAqCNNvUhdQHuJD1/xz3ZCCgQnA0xbqCMim+13Bs4wH0V1Dx6PKhqwuFJ8GLUccTguLkvgqHP98qJuyD24octHFSpHn7oXCbiMzfpPvWJ+6u4QtTsscNSsJ72ZMzZCqKbWoDMwgPOL22SXVFAL07N3xF7VZSGpSHj2vACx16cOgnFxiUnjy2XCP8wMPixOfeOFiqpESrgFAyylyhGroB9G51NcwYnnrImLHlTJ5hZoYgYeviKCOjrpAhFqrtwj8bdi1pP8ulLLxVEVTdpCVVVnUbIPEFa1SQrxPMYjbr+riD2pKw/rA7pOmztJon75CpyX8dSLFadisee43HTHtRYelXvFSMTFHTi3Vpy3W7l4BBouRuIvwp7fxUhM8XKUzYsY+6/DshdNOOu3fpTkVz3cSMzvkoTK6mf4CAMgV1uxWSvK3lUAn2E4LaG++vxA+oFupdABeFyhyjo6YAOtFefBOTqh0lo5cIE97JBWBz3ukBcILF2otnK400+ChY5kZXCLjmMP7Y9ZqLi+mnsfYZM3zqpgJw4Fr/DVhKpr3OuTR8SJ5m3KVgQr/rPwHEJpFo1vaUsTC6H7pQLyxcUDg1oN3DCavRwOVB/hRAwgya1pJfBIMF3lpXwV2msnHqlVwFoCjyrUIZHJUqPAceJXbnCaX8UG1xqDbaaQwonrmyvHRCq9ZlmLGiZpmNAQVWAHqFVjNhI9dZ81OqHfu9X4bvzuYO/Ba5TgBz+59wjfmEi3PdaxapikYUL9qg63ThxKGD9f+ERPE9ke3yywJE2vDeA39P6dREdO2oeA21JjIlVeSUqLGCZpoFCtCos/hxRWOjksACki04ELbLRHaXZn/k6S7dokzGG3QsZEelq65B9S6Z2tzITe2XJefgIpbL8w3FwM3Q7+vkLXE16jK30q/D58EsludOgSwzaxHkiLJESolxOBFrbvZid/+pw/EbhqTa4V4ODD6QpzOPV5UZxKi1lBmNBMONWGZ6eF4bkf4oU0+W7svb7nQql/+s6WYltYx3rxCfXjmS2NZ0lVIUiPCnyjGoeMUoK+8fFlJ0EvQXCLSwQeVfIjz26XIsSYSJXXrBpSqSBQqE8Vr6aE8fOFLwgpf9xx52HsbaFLidivRbSgkBfsFb3d0ToithzZTmFgyFXBzkN7boYjz0aFlm9MpHgYS2kRhAkNULUPSoQwfr7wBSKNbZX1HoRAB1pV0PoFaMKigqJT1MxiXBZk+gC8BcG6y+NYfmc0KQw2gehDZ0uotbewJoABJtkr2uJMhrUE9lsI1UukUuyl4Y36ohWGaxBCRsUMHqVSLzoBRZRRN+E0W5H+faC02RR+Z0dsYWZmJlHimkZ5dAoqyUm5Y641TMtQRA0TZbPGt4e7Gb5hUnHgVGhxTd0FrDU50g1DfbG3aCJFi0TXRfhXKhyiZiT6yGWpfhTlo+5C34NVQOERijtCA8FmUtJ1XwPW8IaESm6y//FtAI60fp0mEwctL3KkObI6xCos4ViArd9elJA6hD2AEQ5LUBvJwo6cXlIJaq3oYY/ifM/qEVyzTUT6u0Dg7aYl1HPJJL+62Nz8TZlgaFNb1KsdYVzSehW6YEdFcGRNSb3CEdvkqF1wPip1XE+DdcodKI5Ju/teEnK3D41T3zehqqtdlh4RGJbgd2TruwhALi9NsLfDs2mvTNA0SD6OPNc7LBBsIPCIzyXUdgMArV3PeIofslcPobkXoAB3y0hgRUBXrg6DD6Flg53Ew/VMWApwdEKFlz/p3gHwaclk9T0xqfipV0I4sgVFPG0AKJofVbNsNjMlQWf3Adh78NmEKu8Yg0IHmE3f9KGSDYFg8rOAKG+qmig2YQAVV55WhErYi6sXNUXbgdV2QFllJzMMmx+TjdGHB+5OqPbSaKYdBs/Vlsndz2lnz8/eHmiDiZCxhyzMrIKLW520F+UEFUF4LyBXmd6Ba40kGze+kRj4GoWKr8ki7yMIgXgPVo87lE0tdWQ7iXgSuw8/aLwsCHXfyQEBPsNN0ozWYbnAUHTsaXFa2i7Qt5JJ06MPgcPWiDoAL10sIYT6J4QjdoDQY2+mNu3Xat8Smo3lsoTydsCW26WTQvj8cI5FCx51KcWNAdh5aB+FViAmuD3+/ECQ92CVms6sAn6GQAjkTKRKCkm5roTC21IMgNT3OnWy82WoR6a22BTPFV4NwPSkdEmMnVQ4atLThCcnzYKWcrjeZwQSPlgXoNk03qMSPFiAR4A2XghJlS55nDGpwPK9Tp1CVahH5qG02EQJhyTwpHQCKL3CURMmwkmzsCUnagLPcuMazc/ZZKlv0CHMGRPxvU6dSlWQR6YvA8CJHEAcIvQK3xeiMK5UKiPuCjjSmoeMBjP6kQIOfiTx/GuEOWMSvtepU6gK8sj0ZgAkgBcZCQGU3kulU81+YbyJGEIB1itLT9Vcnm2lQEyhCmE25G0p8L1OnUIVeWRmBYzPE4L0AidyEXLSLIBpumsGOL165Y95TWWqowE+w2C6wnzQ21IGmOd16mRVUkA4h4ETpdeDctIshGm93YABcB8ayp0B7aWd96dAZ0wZab7XqVOoCvPIDJp96J8NeoVyEdDKSbMgpnGuM48FtCZ01p+z4Ky0sHoBo/SZsFDg4r+HMIMQZ0xunfe9Tp1KVZBHpi8DgFB6WtpGhF4xRFPMHjtpFsiUyZJ2AAEb+A4EPh8rHtRxlFYJTcM6PSzg3sOZLC2EmdzxO2Oq5+9OTpdbh0pVsEemz2Jzq3ToGYDpidbLjpqUPXLSLJhp8v+xUMQGVvVsCsDqatFiONg/ZOEtaJPxvfrcSCAksc08QX7xtjAjzhxS0bTtJYiAMyt6LigjVFhJXlbUGpjDIwhBgTMmt8AUmrMDGNiyyg2WPq5bYYQcHXrR9lBBkZ5ggNWpNukWpQ6JZgJ1wvoCde6hGwybcybVqPkeBDgs09SXkubEnQt1hpH+PoBkt2bTXYo4lWi5OlkoLfYWFL47wqoPV+dJkxxl/aCuhYFnk5pYM7GKyAeeDoABhAarwbIYEAJgVVn6GmGE9xgse0QuL0XsFV8PgGQWLejOnnQnQ5Q5ZxJdls37TwQERKDhsiC0WffzZMBCZ0WYotFuFvrNwnpFcp71wxIq9czYIaQ5Z/K8+/sdAa8gHEZot5buDmDTvoTrTJY6QztpljH1ijBwCbhDwwMmlDln0rCQGEMb2KylC03X9YanBoAFbwl11P5VBlCpF90P4oj39XYkzSQaMl8bAFd+XkLrVXdRWhRwtK2o++kd2wmhItijDVXqlXoYlSZIII6AeiWBPnUYtQCLqlOWhBZsDToPINDPiuhBTX/NaDW+AkfTQ7MiHW0pbDHem+bBbA8bUBbm2LEjac6ZIB8xkY6ApwBdq9CKJZHC+QBLHJIgcIiLijEYJbqHhZkRO2YVecGPSsV3npPQgOVrHaWYmSXHnxVNAxgjkRCEhux6ozK1LbAb52KjvgWFbPKem/ttwr55wLEMJTRmE6+OIlKtM3AGOI/AJtGOm0uKlb1kZX1GA77UANMS2rPxb1PhqT4KEHHkrox01OpuO4nKml8EMMraT6BKCW3a4YYhJoDIL6DMKW9T0/2/BwFWNyw2vqLQru3a+gM40pmqZsdxx8ClhcL2rgltW9NFzhHZAEaYqipW+YiN9WQDCI7BoQjtW/2ycIgAYj/ZlRqc6rWQkwHw+Z9LaOP+RWAEAOzg/FSti54zgEAIVC+rQjtXOa9ePADnF7fwhahaFb4Uw726AF7lowptXZWiFgwDAMHeg5aqVMulAINdctWyJrR3X3aA9oCv76jDmatMl9hhk4HNGmCcm7TQ6E3JHkDA/Qxv4DqrSFWOuK87D+DcEwtRaPmymL43PwBwpK+hEq3DkQLw6ocbIbR+T7UoAA9omfeOI85R3ykMr4DEikOPfQD+oF8iIYQ1oPqLYmhsXRoQ4DPY8iOW4ZeomVWC2aGO9RlzlOPOHkVb5M958M+2XKBdF9g6TGEtaCLVcQyubBbg8IfmKLOFErlj9QzOQfeEbkY0IRCzfrN6/lGxwQ3xbQH3HozOtAlVKWFV6GY+EoAwb978ZbgT+l5OKfIZ7AnH/JcIwBOA+yasDxWIOwGhC+Dlu7w3yx1zMrzIiCJUKOtGcnw0xZ0j9JNlm0yPl0ud+txDbLpuv81mJHMHewMfBfnZhlA3zM+OeH7YO5U42C7N9IV+N4DAIRhOWCca/zYVT8p9AXAc+1cthyVPJEY8KoZNSsFar+wFQoWg1SULK4aBPfENlDQNVIf42XrRAzal8V7txKEX/ryvemeaPT4hF89eWDEqnhKH2A7YgzhP9uXL60QDpKBSh+XCIe/Zhaf6GUZxz8Fj6ANRys82A+pNzj2PvS/3c9f8V9hPEXDqwaDzVMLa0W0lVuLVAAg68V362urLx45V9PD59GoVxQ4HZhZYcLaUs63yCwxGDNh0YUe4Xs4PDgyeqa+2BuAZhLd4W8IqUvd54wXaAu1GWKUMqJhdYIwWK3uhE2yRN8sm8hUuyAY0YFNxfCDnXPucXwxof/Rl8qawopRasQsCEPAjSHelL8S8x2zRbX2GVbxKMRN2gloIswBmM5gjpkj7gdIoOpdUabAd3giA5xCm1JywtlS1rIahZnsAHTMMtBZbMtASnCDUE1HFysIW4SyCwqqu7J/BdTaAozB/6Aqh/aGVeivmmIX0sVAAbsEgNDEHEVaZujbUN2sHIOTYG3QkM30qrN1VaNikEFbN5l4wFLQ7Fc/zT6mgBXpUKYQrS2mko2ax7vWzlb8IjvA3ihqwaRGv+ZYjRppTs/8f8dL8hl4GywjrTZP8T6yV79AHgGm49FWzXB7tAlo69PNvaNpRJuwV+bSoig5EM3FQbK+iUeM4rYf42XrPkyI1FSElJ5PR5zsNALjZrix7W8LK08S2ydSK3XHTETjxjW548RZxeL/ksp2ts0/f8BIBYMfTSPZnCKtQE6hSKSXnIwwA4Kc+W38WcvTZyl7SUK9Ot/oxAOAjCPbt7KdQi1mRGt8mlUzyPvwAMB16vVXdfUbebxPJdra/lqMBwDxXPr5tSlidGtc6nViKXsMQADouSUnvbvTy25wZmj03cUrjXKWFlaqxrjIJhThNANjb6ENn/rUPGAW0+NOPNgQbCQBz2J1e1llh1WrC2+NMhjoHOw8BwLqmuDFeQ9G8xsDrCgCHdQ6ZLPVlhDWsSkU1Fle8BhEAdD5FD3LVNQ5ZRdJ3yygvYIYwnT7gEWdeqawKK1rTyhqRp3NYAHA9a3MuCuPa57iBzX3eEMhazLSE9a3qZSWukK8fAOxn+CLSD7TLVwZHXPJcuLwII7dfAJhnXC7vubDaNffsrv8CHjwEACd6GmszozoHDOn6W/EQHU27qgPr4YitbqPTyVUxYe3rvNd7az4jmjXmAq56RJKNeNULGBPN6hQEgeSSr7koC2th41xlskTUYzr4sB0AePmFziO3w2v0sEtR+reWpc6Erq702ewtAKyWd/ZkYYm5mNcUVseWEEOol3UsAPBijmNv2HxN6RYJNNJ6DtHR3QwDwPn4DrwtXoKwXlazLCdX/B42/zedDn8o1Ni711Zr/jhEGbz0qZC1p87yNGaIZn3GPRz6cwrrZ1eVLSKdiPlknwTN5ecrGr5NnpZMy2K4HjFvU24z/FqguV7Mix86YWMxwwgravc93WhUOTJ7D6K55rGUOWccaEUvxNez/P/ncJWDLqC1hylCsy7tFZYclanTbbrICatsk6/Fymf11Jqd3pu68zCaa+t+6iw/bb6mPNN6+4wlfr6LNv7pF3d6dY8WzWU3x959fztTS6Zc0RBW34bJn3Q2KjAC5+5mjtF8/R7XbLq8twZdz/IN7hItwOqXO+Hyt6Q5vZDzyF1uv2i+dp4ADIRAXC7e8DDCmlzNsvRPYnLldLyH4R20Q6/y/AuvJ9ILGNZloBVsSlOdgRxHXPS6vst8h32n6xkcvf58HgC6/uAYxBTq76xVloTVurGus38jnWGicfUQv6Sdj5v7y2Rze3R4/YFTD/XmneQOTqeP7G15RhtXucHVq9Pm+1vJ/1FmFv5315Evn9v3/evwOzPm3t4ietUond50pUPtY+msOdZNdgq1mLW8tymWEGk0E4WqH20Od9YOvV27l/f7Fe6M84u7lsO2uY8D6LqvPVvLhzBmNOS1lz7jL/o4Rqx2xD5A3QPmEi/AdgGXuJK33Nl/6dPDF8k9ehm87NvOIpPuvn7XzTfvtrWV/Dvz8VNT0z/spQ3vP32wZ7cdy/Acwrf74de4hLcR1vomXh31sMpvfT7XSW+YBEJ8mAdd1Jfsyx3A7WCuJn5PLcE2v67hQtvOfEiaf5VBM3mT3kftcZWbRJUQH1ShydQSPa/zlYvqcJ8vkRB2ee3DEjMUNk8nMAQBQtdv6PuEgfcwWNDVzM9DgD7jnY3xYm3bDYbB2rXdYuORHu88bzHy7f3jaUQ73COND3xJkP5yFb/tjFLskvKkqr5GHxxoMp7p3/3l1UYA;" vertex="1" parent="WIyWlLk6GJQsqaUBKTNV-1">
          <mxGeometry x="246" y="-570" width="848" height="823" as="geometry" />
        </mxCell>
      </root>
    </mxGraphModel>
  </diagram>
</mxfile>
